<svg preserveAspectRatio="xMidYMid meet" overflow="visible" style="display: block;" viewBox="0 0 87.6016 32.8506" fill="none" xmlns="http://www.w3.org/2000/svg">
<g id="Figma" clip-path="url(#clip0_0_4)">
<path id="Vector" d="M78.956 26.2401C77.7539 26.2401 76.6747 26.0094 75.7184 25.548C74.7864 25.0861 74.0384 24.4665 73.4744 23.689C72.9341 22.8876 72.6643 21.9643 72.6648 20.9191C72.6648 19.5588 73.1062 18.4533 73.989 17.6027C74.8718 16.7521 76.135 16.169 77.7785 15.8534L82.0834 14.9791C82.9414 14.8089 83.53 14.5416 83.8493 14.1773C84.1681 13.8129 84.3275 13.2784 84.3275 12.5736L84.7684 16.8374L78.5881 18.1499C77.7544 18.3192 77.1045 18.6228 76.6382 19.0608C76.1968 19.4988 75.9761 20.106 75.9761 20.8825C75.9761 21.6844 76.2827 22.3284 76.8959 22.8147C77.5335 23.3 78.3917 23.5429 79.4707 23.5434C80.354 23.5434 81.1636 23.349 81.8994 22.9603C82.6591 22.5721 83.2478 22.0375 83.6653 21.3566C84.1067 20.6518 84.3275 19.85 84.3275 18.9511V12.5736C84.3275 11.6985 84.0084 11.0181 83.3704 10.5323C82.7572 10.0222 81.9111 9.76708 80.8321 9.76708C79.4588 9.76708 78.4041 10.1073 77.6683 10.7877C76.9324 11.4681 76.5032 12.4277 76.3805 13.6666L73.1429 13.2298C73.2656 11.9417 73.6581 10.8362 74.3204 9.91341C74.9828 8.96572 75.8656 8.23654 76.9689 7.72586C78.0727 7.21618 79.385 6.96134 80.9059 6.96134C83.0638 6.96134 84.7192 7.50785 85.8722 8.60088C87.0251 9.69391 87.6016 11.1032 87.6016 12.8289V25.6929H84.4012V23.3247C84.0819 24.126 83.432 24.8184 82.4513 25.4017C81.494 25.9607 80.3289 26.2401 78.956 26.2401ZM46.5799 25.6936V7.50785H49.7803V9.54907C50.0256 8.84427 50.5653 8.23679 51.3995 7.72661C52.2336 7.21643 53.2021 6.96134 54.3049 6.96134C55.3854 6.96134 56.3789 7.19204 57.2856 7.65344C58.1932 8.11534 58.7819 8.80794 59.0515 9.73124C59.3703 8.88011 59.9591 8.2119 60.8181 7.72661C61.7005 7.21643 62.6811 6.96134 63.7601 6.96134C65.6245 6.96134 67.0473 7.49591 68.0285 8.56504C69.0096 9.63368 69.5002 11.1886 69.5002 13.2298V25.6936H66.2253V13.6666C66.2253 12.4521 65.9557 11.5413 65.4165 10.934C64.9006 10.3019 64.1402 9.98583 63.1352 9.98583C62.0314 9.98583 61.1729 10.3746 60.5597 11.152C59.9708 11.9061 59.6764 13.0116 59.6764 14.4684V25.6936H56.403V13.6666C56.403 12.4521 56.1329 11.5413 55.5927 10.934C55.0783 10.3019 54.3181 9.98583 53.3121 9.98583C52.2083 9.98583 51.3498 10.3746 50.7366 11.152C50.1478 11.9061 49.8533 13.0116 49.8533 14.4684V25.6936H46.5799ZM34.0595 32.2533C31.7784 32.2533 29.9266 31.7309 28.5041 30.6862C27.0815 29.6414 26.1739 28.1838 25.7811 26.3133L28.9822 25.6205C29.2524 26.8111 29.8288 27.7344 30.7116 28.3904C31.5945 29.0708 32.7104 29.411 34.0595 29.411C35.6777 29.411 36.8917 28.9979 37.7015 28.1716C38.5352 27.3703 38.952 26.1677 38.952 24.564V21.6844C38.5846 22.5828 37.8979 23.312 36.8919 23.8719C35.9108 24.4304 34.8073 24.7096 33.5813 24.7096C31.9622 24.7096 30.5396 24.3453 29.3137 23.6166C28.0872 22.8625 27.1307 21.8178 26.444 20.4823C25.7573 19.1459 25.4139 17.6029 25.4139 15.8534C25.4139 14.08 25.757 12.525 26.4433 11.1886C27.1304 9.85219 28.0748 8.81963 29.2764 8.09095C30.5029 7.33787 31.9378 6.96134 33.5813 6.96134C34.8078 6.96134 35.9237 7.24057 36.9292 7.79903C37.9585 8.3336 38.6574 9.00181 39.0258 9.80366V7.50785H42.2269V24.5633C42.2269 26.166 41.9081 27.5387 41.2706 28.6815C40.633 29.8477 39.701 30.7345 38.4746 31.3417C37.2725 31.9489 35.8008 32.2533 34.0595 32.2533ZM33.9858 21.83C35.5553 21.83 36.806 21.2832 37.738 20.1897C38.6943 19.0966 39.1727 17.651 39.1732 15.8526C39.1732 14.0309 38.6948 12.5733 37.738 11.4798C36.7812 10.3863 35.5305 9.8395 33.9858 9.8395C32.4162 9.8395 31.1531 10.3863 30.1963 11.4798C29.2643 12.5733 28.7983 14.0309 28.7983 15.8526C28.7983 17.6505 29.2764 19.0964 30.2328 20.1904C31.1896 21.2829 32.441 21.8295 33.9858 21.83ZM18.8059 25.6936V7.50785H22.0807V25.6936H18.8059ZM18.7694 5.17546V0H22.1172V5.17546H18.7694ZM0 25.6936V0H3.45807V25.6936H0ZM0.699352 14.8328V11.7351H14.7893V14.8335L0.699352 14.8328ZM0.699352 3.13424V0H16.1508V3.13424H0.699352Z" fill="var(--fill-0, #0A0A0A)"/>
</g>
<defs>
<clipPath id="clip0_0_4">
<rect width="87.6016" height="32.8506" fill="white"/>
</clipPath>
</defs>
</svg>
