<svg preserveAspectRatio="none" width="100%" height="100%" overflow="visible" style="display: block;" viewBox="0 0 84.501 27.36" fill="none" xmlns="http://www.w3.org/2000/svg">
<g id="Group">
<path id="s_5_" d="M7.27089 12.2667C6.26619 11.7067 5.7374 11.2533 5.7374 10.6133C5.7374 9.78667 6.45127 9.28 7.58817 9.28C8.91015 9.28 10.0735 9.84 10.0735 9.84L10.9989 6.98667C10.9989 6.98667 10.1528 6.32 7.64105 6.32C4.15102 6.32 1.71857 8.34667 1.71857 11.1733C1.71857 12.7733 2.85548 14 4.36254 14.88C5.57876 15.5733 6.0018 16.08 6.0018 16.8C6.0018 17.5733 5.39368 18.1867 4.25678 18.1867C2.56464 18.1867 0.978269 17.3067 0.978269 17.3067L1.53576e-06 20.16C1.53576e-06 20.16 1.48062 21.1467 3.9395 21.1467C7.53529 21.1467 10.0999 19.36 10.0999 16.16C10.1528 14.4 8.83083 13.1733 7.27089 12.2667Z" fill="var(--fill-0, #0A0A0A)"/>
<path id="h_5_" d="M21.6012 6.26667C19.8297 6.26667 18.4549 7.12 17.3708 8.4L17.3179 8.37333L18.8514 0.266667H14.8326L10.946 20.88H14.9384L16.2604 13.84C16.7892 11.1733 18.1376 9.54667 19.4067 9.54667C20.3056 9.54667 20.6493 10.16 20.6493 11.04C20.6493 11.6 20.5965 12.2667 20.4643 12.8267L18.9572 20.9067H22.9496L24.5095 12.5867C24.6946 11.7067 24.8004 10.6667 24.8004 9.94667C24.8532 7.62667 23.6899 6.26667 21.6012 6.26667Z" fill="var(--fill-0, #0A0A0A)"/>
<path id="o_5_" d="M33.8956 6.26667C29.0836 6.26667 25.8844 10.64 25.8844 15.52C25.8844 18.64 27.788 21.1733 31.3838 21.1733C36.1165 21.1733 39.2893 16.9067 39.2893 11.92C39.3157 9.01333 37.65 6.26667 33.8956 6.26667ZM31.9391 18.0533C30.5642 18.0533 30.009 16.88 30.009 15.4133C30.009 13.0933 31.1987 9.33333 33.3668 9.33333C34.7945 9.33333 35.244 10.56 35.244 11.76C35.244 14.2667 34.0542 18.0533 31.9391 18.0533Z" fill="var(--fill-0, #0A0A0A)"/>
<path id="p_5_" d="M49.5478 6.26667C46.851 6.26667 45.3175 8.66667 45.3175 8.66667H45.2646L45.5026 6.50667H41.9597C41.7746 7.97333 41.4573 10.1867 41.14 11.8667L38.3639 26.5867H42.3563L43.4667 20.6133H43.5461C43.5461 20.6133 44.3657 21.1467 45.8992 21.1467C50.6054 21.1467 53.6724 16.2933 53.6724 11.3867C53.6724 8.69333 52.4826 6.26667 49.5478 6.26667ZM45.7405 18.1333C44.7094 18.1333 44.1013 17.5467 44.1013 17.5467L44.7623 13.7867C45.2382 11.28 46.5337 9.6 47.9086 9.6C49.1248 9.6 49.495 10.7467 49.495 11.8133C49.495 14.4 47.9615 18.1333 45.7405 18.1333Z" fill="var(--fill-0, #0A0A0A)"/>
<path id="dot_5_" d="M59.3834 0.48C58.1143 0.48 57.0831 1.49333 57.0831 2.82667C57.0831 4.02667 57.8234 4.85333 58.9603 4.85333H59.0132C60.2559 4.85333 61.3399 4 61.3664 2.50667C61.3928 1.30667 60.5996 0.48 59.3834 0.48Z" fill="var(--fill-0, #0A0A0A)"/>
<path id="i_5_" d="M53.7782 20.88H57.797L60.5203 6.58667H56.475L53.7782 20.88Z" fill="var(--fill-0, #0A0A0A)"/>
<path id="f_5_" d="M70.6731 6.56H67.8969L68.0291 5.89333C68.2671 4.50667 69.0603 3.28 70.4087 3.28C71.1226 3.28 71.6778 3.49333 71.6778 3.49333L72.471 0.346667C72.471 0.346667 71.7836 1.24176e-07 70.3029 1.24176e-07C68.8752 1.24176e-07 67.4739 0.4 66.3899 1.33333C65.015 2.50667 64.3805 4.18667 64.0632 5.89333L63.9574 6.56H62.1067L61.525 9.6H63.3758L61.2606 20.88H65.253L67.3682 9.6H70.1179L70.6731 6.56Z" fill="var(--fill-0, #0A0A0A)"/>
<path id="y_5_" d="M80.2971 6.58667C80.2971 6.58667 77.7854 12.9333 76.6749 16.4H76.622C76.5427 15.28 75.6437 6.58667 75.6437 6.58667H71.4398L73.8459 19.7067C73.8987 20 73.8723 20.1867 73.7665 20.3733C73.2906 21.28 72.5239 22.16 71.5985 22.8C70.8582 23.36 70.0121 23.7067 69.3511 23.9467L70.4616 27.36C71.2812 27.1733 72.9469 26.5067 74.3746 25.1733C76.199 23.44 77.8911 20.8 79.6097 17.1733L84.501 6.58667H80.2971Z" fill="var(--fill-0, #0A0A0A)"/>
</g>
</svg>
