<svg preserveAspectRatio="none" width="100%" height="100%" overflow="visible" style="display: block;" viewBox="0 0 35.6687 35.6687" fill="none" xmlns="http://www.w3.org/2000/svg">
<g id="Notion" clip-path="url(#clip0_0_58)">
<path id="Vector" fill-rule="evenodd" clip-rule="evenodd" d="M6.68401 6.34767C7.7877 7.24437 8.20175 7.17596 10.2743 7.03767L29.8133 5.86444C30.2277 5.86444 29.8831 5.45103 29.7448 5.38234L26.4999 3.03645C25.8781 2.55371 25.0497 2.00089 23.462 2.13918L4.54245 3.51911C3.85245 3.58753 3.71465 3.93253 3.98942 4.20904L6.68401 6.34767ZM7.85709 10.9012V31.4596C7.85709 32.5645 8.40922 32.9778 9.6519 32.9095L31.1252 31.6669C32.3685 31.5986 32.507 30.8386 32.507 29.9411V9.52066C32.507 8.62458 32.1623 8.14136 31.4012 8.21033L8.96142 9.52066C8.13326 9.59026 7.85702 10.0045 7.85702 10.9012H7.85709ZM29.0555 12.004C29.1931 12.6255 29.0555 13.2465 28.4328 13.3164L27.3982 13.5225V28.7C26.4999 29.1828 25.6715 29.4588 24.9812 29.4588C23.8761 29.4588 23.5993 29.1136 22.7715 28.0794L16.0038 17.455V27.7344L18.1454 28.2176C18.1454 28.2176 18.1454 29.4588 16.4176 29.4588L11.6545 29.7351C11.5161 29.4588 11.6545 28.7695 12.1376 28.6315L13.3806 28.2869V14.6957L11.6548 14.5574C11.5164 13.9359 11.8611 13.0397 12.8285 12.9702L17.9382 12.6257L24.9812 23.3884V13.8674L23.1855 13.6614C23.0477 12.9016 23.5993 12.3498 24.2898 12.2814L29.0555 12.004ZM2.95393 1.65652L22.6333 0.207265C25.05 -1.89985e-07 25.6718 0.138851 27.1907 1.2422L33.4726 5.65746C34.5092 6.41671 34.8546 6.62342 34.8546 7.45108V31.6669C34.8546 33.1846 34.3018 34.0821 32.3689 34.2194L9.51515 35.5995C8.06415 35.6687 7.37359 35.4619 6.61371 34.4955L1.98762 28.4934C1.15877 27.3885 0.814052 26.5619 0.814052 25.5949V4.07026C0.814052 2.82918 1.36709 1.7939 2.95393 1.65652V1.65652Z" fill="var(--fill-0, #0A0A0A)"/>
</g>
<defs>
<clipPath id="clip0_0_58">
<rect width="35.6687" height="35.6687" fill="white"/>
</clipPath>
</defs>
</svg>
