<svg preserveAspectRatio="xMidYMid meet" overflow="visible" style="display: block;" viewBox="0 0 471.955 127.089" fill="none" xmlns="http://www.w3.org/2000/svg">
<g id="Group">
<path id="Vector" d="M50.2088 0C22.594 0 0 22.6247 0 50.2771C0 77.9295 22.594 100.554 50.2088 100.554C77.8237 100.554 100.418 78.069 100.418 50.2771C100.418 22.4847 77.9631 0 50.2088 0ZM50.2088 82.5381C33.0543 82.5381 19.2464 68.4327 19.2464 50.2771C19.2464 32.1214 33.0543 18.0157 50.2088 18.0157C67.3634 18.0157 81.1708 32.1214 81.1708 50.2771C81.1708 68.4327 67.3634 82.5381 50.2088 82.5381Z" fill="var(--fill-0, #0A0A0A)"/>
<path id="Vector_2" d="M151.183 27.9312C142.118 27.9312 133.331 31.5624 128.728 37.7075V29.3277H110.597V127.089H128.728V91.7554C133.331 97.4813 141.839 100.554 151.183 100.554C170.709 100.554 186.051 85.1912 186.051 64.2425C186.051 43.2939 170.709 27.9312 151.183 27.9312ZM148.115 84.7725C137.794 84.7725 128.589 76.6723 128.589 64.2425C128.589 51.8128 137.794 43.7126 148.115 43.7126C158.436 43.7126 167.64 51.8128 167.64 64.2425C167.64 76.6723 158.436 84.7725 148.115 84.7725Z" fill="var(--fill-0, #0A0A0A)"/>
<path id="Vector_3" d="M228.729 27.9312C208.925 27.9312 193.304 43.4335 193.304 64.2425C193.304 85.0516 206.972 100.554 229.287 100.554C247.558 100.554 259.273 89.5207 262.899 77.0909H245.187C242.955 82.2586 236.679 85.8894 229.148 85.8894C219.803 85.8894 212.69 79.3257 211.017 69.9685H263.736V62.8461C263.736 43.8522 250.487 27.9312 228.729 27.9312ZM211.156 57.1201C213.109 48.3216 220.361 42.5957 229.148 42.5957C238.492 42.5957 245.605 48.7403 246.442 57.1201H211.156Z" fill="var(--fill-0, #0A0A0A)"/>
<path id="Vector_4" d="M311.991 27.9312C303.902 27.9312 295.394 31.5624 291.489 37.5679V29.3277H273.358V99.1574H291.489V61.5891C291.489 50.6955 297.346 43.573 306.83 43.573C315.617 43.573 320.358 50.2768 320.358 59.634V99.1574H338.489V56.701C338.489 39.3831 327.889 27.9312 311.991 27.9312Z" fill="var(--fill-0, #0A0A0A)"/>
<path id="Vector_5" d="M384.928 1.39922L345.458 99.1604H364.845L373.212 77.7926H418.122L426.489 99.1604H446.153L406.964 1.39922H384.928ZM379.488 61.5921L395.667 20.6722L411.704 61.5921H379.488Z" fill="var(--fill-0, #0A0A0A)"/>
<path id="Vector_6" d="M471.955 1.39922H453.546V99.1604H471.955V1.39922Z" fill="var(--fill-0, #0A0A0A)"/>
</g>
</svg>
