<svg preserveAspectRatio="none" width="100%" height="100%" overflow="visible" style="display: block;" viewBox="0 0 46 46" fill="none" xmlns="http://www.w3.org/2000/svg">
<g id="Frame">
<path id="Vector" d="M30.1875 11.1406C32.7678 11.1406 34.8594 13.2323 34.8594 15.8125V38.8125C34.8594 41.3928 32.7678 43.4844 30.1875 43.4844H7.1875C4.6073 43.4844 2.51562 41.3928 2.51562 38.8125V15.8125C2.51562 13.2323 4.6073 11.1406 7.1875 11.1406H30.1875ZM7.1875 14.7344C6.59206 14.7344 6.10938 15.2171 6.10938 15.8125V38.8125C6.10938 39.4079 6.59206 39.8906 7.1875 39.8906H30.1875C30.7829 39.8906 31.2656 39.4079 31.2656 38.8125V15.8125C31.2656 15.2171 30.7829 14.7344 30.1875 14.7344H7.1875ZM38.8125 2.51562C41.3928 2.51562 43.4844 4.6073 43.4844 7.1875V30.1875C43.4844 31.18 42.68 31.9844 41.6875 31.9844C40.695 31.9844 39.8906 31.18 39.8906 30.1875V7.1875C39.8906 6.59206 39.4079 6.10938 38.8125 6.10938H15.8125C14.8201 6.10938 14.0156 5.30489 14.0156 4.3125C14.0156 3.32011 14.8201 2.51562 15.8125 2.51562H38.8125Z" fill="var(--fill-0, #2268FF)"/>
</g>
</svg>
