<svg preserveAspectRatio="none" width="100%" height="100%" overflow="visible" style="display: block;" viewBox="0 0 1841.5 601.499" fill="none" xmlns="http://www.w3.org/2000/svg">
<g id="Group 2147259380">
<path id="Vector" d="M0.75 600.749H773.55C928.11 600.749 986.99 405.75 1141.55 405.75H1840.75" stroke="var(--stroke-0, white)" stroke-width="1.5" stroke-linecap="round" stroke-linejoin="round"/>
<path id="Vector_2" d="M0.75 550.75H773.55C928.11 550.75 986.99 388.25 1141.55 388.25H1840.75" stroke="var(--stroke-0, white)" stroke-width="1.5" stroke-linecap="round" stroke-linejoin="round"/>
<path id="Vector_3" d="M0.75 500.747H773.55C928.11 500.747 986.99 370.748 1141.55 370.748H1840.75" stroke="var(--stroke-0, white)" stroke-width="1.5" stroke-linecap="round" stroke-linejoin="round"/>
<path id="Vector_4" d="M0.75 450.75H773.55C928.11 450.75 986.99 353.25 1141.55 353.25H1840.75" stroke="var(--stroke-0, white)" stroke-width="1.5" stroke-linecap="round" stroke-linejoin="round"/>
<path id="Vector_5" d="M0.75 400.748H773.55C928.11 400.748 986.99 335.748 1141.55 335.748H1840.75" stroke="var(--stroke-0, white)" stroke-width="1.5" stroke-linecap="round" stroke-linejoin="round"/>
<path id="Vector_6" d="M0.75 350.748H773.55C928.11 350.748 986.99 318.248 1141.55 318.248H1840.75" stroke="var(--stroke-0, white)" stroke-width="1.5" stroke-linecap="round" stroke-linejoin="round"/>
<path id="Vector_7" d="M0.75 300.748H773.55C928.11 300.748 986.99 300.748 1141.55 300.748H1840.75" stroke="var(--stroke-0, white)" stroke-width="1.5" stroke-linecap="round" stroke-linejoin="round"/>
<path id="Vector_8" d="M0.75 250.75H773.55C928.11 250.75 986.99 283.25 1141.55 283.25H1840.75" stroke="var(--stroke-0, white)" stroke-width="1.5" stroke-linecap="round" stroke-linejoin="round"/>
<path id="Vector_9" d="M0.75 200.75H773.55C928.11 200.75 986.99 265.75 1141.55 265.75H1840.75" stroke="var(--stroke-0, white)" stroke-width="1.5" stroke-linecap="round" stroke-linejoin="round"/>
<path id="Vector_10" d="M0.75 150.75H773.55C928.11 150.75 986.99 248.25 1141.55 248.25H1840.75" stroke="var(--stroke-0, white)" stroke-width="1.5" stroke-linecap="round" stroke-linejoin="round"/>
<path id="Vector_11" d="M0.75 100.752H773.55C928.11 100.752 986.99 230.751 1141.55 230.751H1840.75" stroke="var(--stroke-0, white)" stroke-width="1.5" stroke-linecap="round" stroke-linejoin="round"/>
<path id="Vector_12" d="M0.75 50.748H773.55C928.11 50.748 986.99 213.248 1141.55 213.248H1840.75" stroke="var(--stroke-0, white)" stroke-width="1.5" stroke-linecap="round" stroke-linejoin="round"/>
<path id="Vector_13" d="M0.75 0.75H773.55C928.11 0.75 986.99 195.749 1141.55 195.749H1840.75" stroke="var(--stroke-0, white)" stroke-width="1.5" stroke-linecap="round" stroke-linejoin="round"/>
<path id="Vector_14" d="M773.551 600.748V0.75" stroke="var(--stroke-0, white)" stroke-width="1.5" stroke-dasharray="10 10"/>
<path id="Vector_15" d="M1141.18 405.97L1141.18 195.523" stroke="var(--stroke-0, white)" stroke-width="1.5" stroke-dasharray="10 10"/>
</g>
</svg>
