<svg width="30" height="30" viewBox="0 0 30 30" fill="none" xmlns="http://www.w3.org/2000/svg">
<path id="Vector" d="M27.7489 9.82166L20.1914 2.2544C19.2963 1.40825 18.2303 0.763927 17.0651 0.364906C14.4831 -0.494799 11.9133 0.176261 9.83223 2.2544L2.25615 9.82166C1.41005 10.7167 0.765768 11.7829 0.36677 12.9481C-0.495974 15.5304 0.175049 18.1003 2.25615 20.1784L9.82295 27.7456C10.7165 28.592 11.7817 29.2365 12.9461 29.6351C13.6515 29.8736 14.3908 29.9967 15.1354 30C16.9506 30 18.6886 29.2331 20.179 27.7456L27.7427 20.1784C28.5899 19.2836 29.2352 18.2174 29.6352 17.0519C30.4948 14.4696 29.8238 11.9029 27.7427 9.82166H27.7489ZM15.5839 4.45005C16.1554 4.63332 16.6822 4.93465 17.13 5.3345L19.3656 7.57344L15.0056 11.9307L10.6455 7.57035L12.8935 5.31902C13.4966 4.71909 14.3469 4.08204 15.59 4.44695L15.5839 4.45005ZM4.45785 14.414C4.64169 13.8419 4.94411 13.315 5.34533 12.8678L7.58105 10.6319L11.9412 14.9923L7.57795 19.3526L5.32988 17.1014C4.72688 16.5014 4.09296 15.651 4.45475 14.4078L4.45785 14.414ZM14.4212 25.5406C13.8488 25.359 13.3218 25.0575 12.875 24.6562L10.6455 22.4451L15.0056 18.0816L19.3656 22.442L17.1177 24.6934C16.5146 25.2932 15.6673 25.9302 14.4212 25.5654V25.5406ZM25.5534 15.5984C25.3696 16.1699 25.0683 16.6965 24.6689 17.1446L22.4333 19.3526L18.0731 14.9923L22.4333 10.6319L24.6814 12.8801C25.2844 13.48 25.9182 14.3305 25.5564 15.5736" fill="#8E8E88"/>
</svg>
