<svg width="32" height="30" viewBox="0 0 32 30" fill="none" xmlns="http://www.w3.org/2000/svg">
<path id="Vector" d="M31.4671 11.8746L31.424 11.7626L27.0686 0.702717C26.9805 0.485552 26.8236 0.301331 26.6208 0.17672C26.4694 0.0823945 26.2975 0.023901 26.1187 0.00592666C25.9399 -0.0120477 25.7593 0.0109979 25.5914 0.0732159C25.4234 0.135434 25.2727 0.235094 25.1515 0.364208C25.0302 0.493322 24.9417 0.648299 24.893 0.816716L21.9532 9.57865H10.0479L7.10805 0.816716C7.05901 0.64855 6.97029 0.493865 6.84896 0.364998C6.72762 0.236131 6.57704 0.136648 6.40921 0.0744808C6.24138 0.0123136 6.06095 -0.0108172 5.88231 0.00693373C5.70368 0.0246846 5.53177 0.0828253 5.3803 0.17672C5.17745 0.301331 5.0206 0.485552 4.93244 0.702717L0.579162 11.7646L0.533965 11.8746C-0.0927792 13.4692 -0.169992 15.219 0.313967 16.86C0.797926 18.5011 1.81682 19.9445 3.21702 20.9726L3.23345 20.9846L3.27043 21.0126L9.89588 25.8465L13.1829 28.2645L15.1798 29.7345C15.4141 29.9068 15.6997 30 15.9933 30C16.287 30 16.5726 29.9068 16.8069 29.7345L18.8038 28.2645L22.0908 25.8465L28.7635 20.9846L28.782 20.9706C30.1821 19.9429 31.2011 18.4999 31.6855 16.8593C32.1698 15.2186 32.0931 13.4692 31.4671 11.8746Z" fill="#8E8E88"/>
</svg>
