<svg width="43" height="23" viewBox="0 0 43 23" fill="none" xmlns="http://www.w3.org/2000/svg">
<g id="Snyk" clip-path="url(#clip0_4161_118)">
<g id="wordmark-black">
<g id="snyk-wordmark">
<path id="Vector" d="M35.9939 12.2225H35.7204V16.8999H32.3261V5.25408L35.7204 0.00390625V10.8702C36.396 10.0508 38.6723 6.9405 38.6723 6.9405H42.8629L38.8895 11.1009L42.9996 16.9079H38.7125L35.9939 12.2225ZM26.5349 11.4588L27.9264 6.97231H31.2885L27.3473 16.8681C26.173 19.8432 24.4919 21.8558 21.9824 21.8558C21.0172 21.8558 20.2048 21.6092 19.7785 21.3705L21.1298 19.3023C21.3309 19.3261 21.54 19.3341 21.7491 19.3341C22.9074 19.3341 23.7761 18.2204 24.3391 16.8999L20.2048 6.97231H24.0093L25.4973 11.4031C25.7869 12.2464 25.996 13.8532 25.996 13.8532C25.996 13.8532 26.2615 12.302 26.5349 11.4588ZM16.2797 11.2281C16.2797 9.9315 15.7006 9.31898 14.5986 9.31898C14.0597 9.31898 13.4967 9.47012 13.1106 9.70081V16.8999H9.71634V7.06777L13.0382 6.79731L12.9578 8.40418H13.0704C13.7863 7.4496 15.0008 6.72572 16.4486 6.72572C18.186 6.72572 19.6901 7.79166 19.6901 10.3133V16.8999H16.2797V11.2281ZM0 16.3908L0.305646 14.0998C1.36737 14.6169 2.56582 14.8635 3.57124 14.8635C4.30318 14.8635 4.78578 14.6169 4.78578 14.1794C4.78578 12.9225 0.209126 13.2248 0.209126 9.93946C0.209126 7.83939 2.15561 6.73367 4.59274 6.73367C5.80728 6.73367 7.06204 7.05982 7.87441 7.34619L7.54464 9.5974C6.69205 9.27125 5.53381 8.96897 4.56861 8.96897C3.9734 8.96897 3.4908 9.1758 3.4908 9.55763C3.4908 10.7986 8.16397 10.552 8.16397 13.7578C8.16397 15.8897 6.24966 17.1147 3.62754 17.1147C2.17974 17.1147 1.00542 16.8681 0 16.3908Z" fill="#8E8E88"/>
</g>
</g>
</g>
<defs>
<clipPath id="clip0_4161_118">
<rect width="43" height="22.0443" fill="white"/>
</clipPath>
</defs>
</svg>
