<svg preserveAspectRatio="none" width="100%" height="100%" overflow="visible" style="display: block;" viewBox="0 0 57.3922 56.88" fill="none" xmlns="http://www.w3.org/2000/svg">
<g id="Group">
<path id="Vector" d="M22.0125 20.7042V15.3006C22.0125 14.8455 22.1833 14.5041 22.5813 14.2768L33.4457 8.02004C34.9245 7.16687 36.6879 6.76892 38.5078 6.76892C45.3332 6.76892 49.6565 12.0589 49.6565 17.6898C49.6565 18.0878 49.6565 18.5429 49.5994 18.998L38.3371 12.3998C37.6546 12.0018 36.9718 12.0018 36.2893 12.3998L22.0125 20.7042ZM47.381 41.75V28.838C47.381 28.0415 47.0395 27.4727 46.3571 27.0746L32.0803 18.7702L36.7444 16.0966C37.1425 15.8694 37.4839 15.8694 37.882 16.0966L48.7463 22.3534C51.8749 24.1738 53.9792 28.0415 53.9792 31.7953C53.9792 36.118 51.4198 40.0998 47.381 41.7495V41.75ZM18.6566 30.3741L13.9925 27.644C13.5945 27.4167 13.4237 27.0752 13.4237 26.6201V14.1066C13.4237 8.02063 18.0878 3.41303 24.4016 3.41303C26.7909 3.41303 29.0088 4.20953 30.8863 5.63148L19.681 12.116C18.9986 12.514 18.6572 13.0827 18.6572 13.8794V30.3745L18.6566 30.3741ZM28.6961 36.1757L22.0125 32.4217V24.4588L28.6961 20.7048L35.3791 24.4588V32.4217L28.6961 36.1757ZM32.9905 53.4674C30.6013 53.4674 28.3835 52.6709 26.5059 51.2491L37.7112 44.7645C38.3936 44.3665 38.735 43.7977 38.735 43.0011V26.5059L43.4563 29.236C43.8543 29.4633 44.0251 29.8047 44.0251 30.2599V42.7734C44.0251 48.8594 39.3038 53.467 32.9905 53.467V53.4674ZM19.5098 40.7833L8.64536 34.5266C5.51673 32.7061 3.41244 28.8385 3.41244 25.0846C3.41244 20.7048 6.02896 16.7802 10.0672 15.1305V28.0991C10.0672 28.8956 10.4087 29.4643 11.0911 29.8624L25.3114 38.1097L20.6472 40.7833C20.2493 41.0105 19.9077 41.0105 19.5098 40.7833ZM18.8844 50.1116C12.4569 50.1116 7.73577 45.2767 7.73577 39.3043C7.73577 38.8492 7.79279 38.3941 7.84934 37.939L19.0547 44.4235C19.737 44.8216 20.42 44.8216 21.1023 44.4235L35.3791 36.1762V41.5799C35.3791 42.035 35.2084 42.3764 34.8104 42.6036L23.9461 48.8604C22.4671 49.7136 20.7038 50.1116 18.8839 50.1116H18.8844ZM32.9905 56.88C39.8731 56.88 45.6176 51.9885 46.9264 45.504C53.2969 43.8543 57.3922 37.8819 57.3922 31.7959C57.3922 27.8141 55.686 23.9466 52.6144 21.1593C52.8988 19.9647 53.0695 18.7702 53.0695 17.5762C53.0695 9.44246 46.4713 3.35589 38.8492 3.35589C37.3138 3.35589 35.8348 3.58314 34.3559 4.09537C31.7959 1.59253 28.2693 0 24.4016 0C17.5192 0 11.7746 4.8914 10.4659 11.3759C4.09537 13.0256 0 18.998 0 25.084C0 29.0658 1.70622 32.9333 4.77783 35.7206C4.49345 36.9151 4.32274 38.1097 4.32274 39.3038C4.32274 47.4375 10.921 53.524 18.5429 53.524C20.0784 53.524 21.5574 53.2967 23.0364 52.7845C25.5958 55.2874 29.1223 56.88 32.9905 56.88Z" fill="var(--fill-0, black)"/>
</g>
</svg>
