<svg preserveAspectRatio="none" width="100%" height="100%" overflow="visible" style="display: block;" viewBox="0 0 701.855 601.121" fill="none" xmlns="http://www.w3.org/2000/svg">
<g id="Group">
<path id="Vector" d="M9.97978 600.554L701.364 0.566447" stroke="var(--stroke-0, #EDEBE4)" stroke-width="1.5" stroke-miterlimit="10"/>
<path id="Vector_2" d="M204.701 431.578L588.958 0.566447" stroke="var(--stroke-0, #EDEBE4)" stroke-width="1.5" stroke-miterlimit="10"/>
<path id="Vector_3" d="M463.836 0.566447L204.701 431.578" stroke="var(--stroke-0, #EDEBE4)" stroke-width="1.5" stroke-miterlimit="10"/>
<path id="Vector_4" d="M359.234 0.566447L204.701 431.578" stroke="var(--stroke-0, #EDEBE4)" stroke-width="1.5" stroke-miterlimit="10"/>
<path id="Vector_5" d="M268.016 0.566447L204.701 431.578" stroke="var(--stroke-0, #EDEBE4)" stroke-width="1.5" stroke-miterlimit="10"/>
<path id="Vector_6" d="M179.479 0.566447L204.701 431.578" stroke="var(--stroke-0, #EDEBE4)" stroke-width="1.5" stroke-miterlimit="10"/>
<path id="Vector_7" d="M88.2036 0.554728L204.702 431.577" stroke="var(--stroke-0, #EDEBE4)" stroke-width="1.5" stroke-miterlimit="10"/>
<path id="Vector_8" d="M0.673267 15.9141L204.701 431.579" stroke="var(--stroke-0, #EDEBE4)" stroke-width="1.5" stroke-miterlimit="10"/>
<path id="Vector_9" d="M0.673267 163.89L204.701 431.579" stroke="var(--stroke-0, #EDEBE4)" stroke-width="1.5" stroke-miterlimit="10"/>
<path id="Vector_10" d="M0.673267 247.377L204.701 431.577" stroke="var(--stroke-0, #EDEBE4)" stroke-width="1.5" stroke-miterlimit="10"/>
<path id="Vector_11" d="M0.673267 301.744L204.701 431.575" stroke="var(--stroke-0, #EDEBE4)" stroke-width="1.5" stroke-miterlimit="10"/>
<path id="Vector_12" d="M0.673267 344.664L204.701 431.578" stroke="var(--stroke-0, #EDEBE4)" stroke-width="1.5" stroke-miterlimit="10"/>
<path id="Vector_13" d="M0.673267 379.572L204.701 431.579" stroke="var(--stroke-0, #EDEBE4)" stroke-width="1.5" stroke-miterlimit="10"/>
<path id="Vector_14" d="M0.673267 411.193L204.701 431.577" stroke="var(--stroke-0, #EDEBE4)" stroke-width="1.5" stroke-miterlimit="10"/>
<path id="Vector_15" d="M0.673267 441.979L204.701 431.58" stroke="var(--stroke-0, #EDEBE4)" stroke-width="1.5" stroke-miterlimit="10"/>
<path id="Vector_16" d="M0.673267 473.54L204.701 431.58" stroke="var(--stroke-0, #EDEBE4)" stroke-width="1.5" stroke-miterlimit="10"/>
<path id="Vector_17" d="M0.673267 507.894L204.701 431.58" stroke="var(--stroke-0, #EDEBE4)" stroke-width="1.5" stroke-miterlimit="10"/>
<path id="Vector_18" d="M0.673267 548.617L204.701 431.58" stroke="var(--stroke-0, #EDEBE4)" stroke-width="1.5" stroke-miterlimit="10"/>
</g>
</svg>
