<svg preserveAspectRatio="none" width="100%" height="100%" overflow="visible" style="display: block;" viewBox="0 0 64 64" fill="none" xmlns="http://www.w3.org/2000/svg">
<g id="Frame">
<path id="Vector" d="M22.2324 38.2285C23.2089 37.254 24.7958 37.2528 25.7715 38.2285C26.7471 39.2042 26.7459 40.7912 25.7715 41.7676L12.041 55.498H22.002C23.3812 55.4992 24.501 56.6188 24.502 57.998C24.502 59.378 23.3818 60.4968 22.002 60.498H6.00196C4.62124 60.498 3.49805 59.3788 3.49805 57.998V41.998C3.49897 40.618 4.6218 39.498 6.00196 39.498C7.3812 39.4991 8.50104 40.6188 8.50196 41.998V51.9588L22.2324 38.2285ZM38.2324 38.2285C39.2089 37.254 40.7956 37.2528 41.7716 38.2285L55.502 51.9588V41.998C55.5028 40.618 56.622 39.498 58.002 39.498C59.3812 39.4991 60.5012 40.6188 60.502 41.998V57.998C60.502 59.378 59.3816 60.4968 58.002 60.498H42.002C40.6212 60.498 39.502 59.3788 39.502 57.998C39.5029 56.618 40.622 55.498 42.002 55.498H51.9628L38.2324 41.7676C37.2561 40.7912 37.2561 39.2048 38.2324 38.2285ZM22.002 3.49805C23.3812 3.4991 24.501 4.61876 24.502 5.99804C24.502 7.37812 23.3818 8.497 22.002 8.49804H12.041L25.7715 22.2285C26.7471 23.2042 26.7459 24.7912 25.7715 25.7676C24.7952 26.7438 23.2088 26.7438 22.2324 25.7676L8.50196 12.0371V21.998C8.50196 23.3781 7.38176 24.497 6.00196 24.498C4.62124 24.498 3.49805 23.3788 3.49805 21.998V5.99804C3.49897 4.61812 4.6218 3.49805 6.00196 3.49805H22.002ZM58.002 3.49805C59.3812 3.4991 60.5012 4.61876 60.502 5.99804V21.998C60.502 23.3781 59.3816 24.497 58.002 24.498C56.6212 24.498 55.502 23.3788 55.502 21.998V12.0371L41.7716 25.7676C40.7952 26.7438 39.2088 26.7438 38.2324 25.7676C37.2561 24.7913 37.2561 23.2048 38.2324 22.2285L51.9628 8.49804H42.002C40.6212 8.49804 39.502 7.37876 39.502 5.99804C39.5029 4.61812 40.622 3.49805 42.002 3.49805H58.002Z" fill="var(--fill-0, #F44E00)"/>
</g>
</svg>
