<svg width="131" height="34" viewBox="0 0 131 34" fill="none" xmlns="http://www.w3.org/2000/svg">
<rect width="131" height="34" fill="#1E1E1E"/>
<g id="Logos">
<path d="M-1174.5 -1895.44C-1174.5 -1896.54 -1173.6 -1897.44 -1172.5 -1897.44H2076.5C2077.6 -1897.44 2078.5 -1896.54 2078.5 -1895.44V1841.56C2078.5 1842.67 2077.6 1843.56 2076.5 1843.56H-1172.5C-1173.6 1843.56 -1174.5 1842.67 -1174.5 1841.56V-1895.44Z" fill="#444444"/>
<path d="M-1172.5 -1897.44V-1896.44H2076.5V-1897.44V-1898.44H-1172.5V-1897.44ZM2078.5 -1895.44H2077.5V1841.56H2078.5H2079.5V-1895.44H2078.5ZM2076.5 1843.56V1842.56H-1172.5V1843.56V1844.56H2076.5V1843.56ZM-1174.5 1841.56H-1173.5V-1895.44H-1174.5H-1175.5V1841.56H-1174.5ZM-1172.5 1843.56V1842.56C-1173.05 1842.56 -1173.5 1842.11 -1173.5 1841.56H-1174.5H-1175.5C-1175.5 1843.22 -1174.16 1844.56 -1172.5 1844.56V1843.56ZM2078.5 1841.56H2077.5C2077.5 1842.11 2077.05 1842.56 2076.5 1842.56V1843.56V1844.56C2078.16 1844.56 2079.5 1843.22 2079.5 1841.56H2078.5ZM2076.5 -1897.44V-1896.44C2077.05 -1896.44 2077.5 -1895.99 2077.5 -1895.44H2078.5H2079.5C2079.5 -1897.1 2078.16 -1898.44 2076.5 -1898.44V-1897.44ZM-1172.5 -1897.44V-1898.44C-1174.16 -1898.44 -1175.5 -1897.1 -1175.5 -1895.44H-1174.5H-1173.5C-1173.5 -1895.99 -1173.05 -1896.44 -1172.5 -1896.44V-1897.44Z" fill="white" fill-opacity="0.1"/>
<g id="Frame 4">
<g id="Frame 9">
<g id="Baseten" clip-path="url(#clip0_10_104)">
<path id="Vector" d="M0.36 8.6H17.06V14.2H6.04C5.84 14.2 5.69 14.36 5.69 14.55V19.45C5.69 19.65 5.85 19.8 6.04 19.8H17.06V25.4H11.73C11.53 25.4 11.38 25.56 11.38 25.75V30.65C11.38 30.85 11.54 31 11.73 31H16.71C16.91 31 17.06 30.85 17.06 30.65V25.4H22.4C22.6 25.4 22.75 25.24 22.75 25.05V20.15C22.75 19.95 22.59 19.8 22.4 19.8H17.06V14.2H22.4C22.6 14.2 22.75 14.04 22.75 13.85V8.95C22.75 8.75 22.59 8.6 22.4 8.6H17.06V3.35C17.06 3.15 16.9 3 16.71 3H0.36C0.16 3 0 3.16 0 3.35V8.25C0 8.45 0.16 8.6 0.36 8.6ZM44.41 14.7C43.91 14.2 43.31 13.8 42.65 13.52C41.9147 13.222 41.1246 13.0831 40.3318 13.1124C39.539 13.1417 38.7613 13.3386 38.05 13.69C37.32 14.06 36.73 14.6 36.3 15.31H36.13V8.59H34.1V25.42H36.14V23.61H36.31C36.52 23.97 36.78 24.28 37.08 24.55C37.39 24.8 37.73 25.03 38.09 25.22C38.46 25.4 38.86 25.53 39.27 25.61C40.4003 25.8473 41.5744 25.7642 42.66 25.37C43.3512 25.0916 43.9768 24.6721 44.4968 24.1384C45.0168 23.6046 45.4198 22.9683 45.68 22.27C45.97 21.52 46.12 20.65 46.12 19.67V19.2C46.12 18.24 45.96 17.37 45.65 16.62C45.35 15.87 44.95 15.22 44.42 14.72V14.71L44.41 14.7ZM38.54 15.36C39.2634 15.0444 40.0656 14.9557 40.8405 15.1057C41.6154 15.2557 42.3266 15.6373 42.88 16.2C43.24 16.55 43.52 17 43.71 17.5C43.91 18 44.01 18.57 44.01 19.2V19.67C44.01 20.31 43.91 20.9 43.71 21.41C43.5316 21.89 43.2568 22.3285 42.9025 22.6982C42.5482 23.068 42.122 23.3613 41.65 23.56C40.6435 23.9439 39.529 23.9332 38.53 23.53C38.0511 23.3235 37.619 23.0221 37.2597 22.644C36.9005 22.2659 36.6217 21.8189 36.44 21.33C36.24 20.81 36.14 20.22 36.14 19.58V19.29C36.14 18.67 36.24 18.09 36.44 17.59V17.58C36.65 17.05 36.94 16.59 37.28 16.22C37.64 15.85 38.06 15.56 38.54 15.36ZM97.04 8.59H95V13.45H92.06V15.31H95V23.48C95 24.04 95.17 24.51 95.53 24.88C95.9 25.23 96.37 25.42 96.93 25.42H101.11V23.55H97.61C97.41 23.55 97.28 23.5 97.18 23.4C97.08 23.3 97.04 23.13 97.04 22.91V15.31H101.69V13.45H97.04V8.59ZM114.61 15C114.108 14.4376 113.495 13.9848 112.81 13.67C112.01 13.2819 111.129 13.09 110.24 13.11C108.654 13.1082 107.129 13.717 105.98 14.81C105.416 15.3513 104.972 16.0046 104.675 16.7279C104.379 17.4513 104.238 18.2287 104.26 19.01V19.58C104.26 20.48 104.41 21.33 104.7 22.08C105.106 23.1981 105.858 24.1572 106.848 24.8174C107.837 25.4776 109.012 25.8043 110.2 25.75C111.75 25.75 113 25.4 113.92 24.71C114.831 24.0265 115.5 23.0701 115.83 21.98L115.86 21.91L113.92 21.39L113.9 21.46C113.79 21.79 113.63 22.1 113.44 22.4C113.27 22.67 113.04 22.92 112.74 23.14C112.46 23.36 112.11 23.53 111.7 23.65C111.29 23.78 110.8 23.84 110.24 23.84C109.72 23.869 109.199 23.7907 108.711 23.6101C108.222 23.4295 107.776 23.1503 107.4 22.79C106.713 22.0567 106.321 21.095 106.3 20.09H115.98V18.49C115.98 17.95 115.87 17.37 115.64 16.74C115.418 16.0964 115.067 15.5045 114.61 15ZM106.36 18.21C106.494 17.3415 106.925 16.5464 107.58 15.96C108.132 15.5155 108.787 15.2182 109.485 15.0958C110.183 14.9733 110.9 15.0299 111.57 15.26C112.01 15.42 112.4 15.64 112.74 15.92C113.08 16.19 113.36 16.54 113.56 16.94C113.77 17.32 113.9 17.74 113.94 18.21H106.36ZM129.09 14.42C128.65 13.9808 128.122 13.6383 127.542 13.4144C126.962 13.1906 126.341 13.0903 125.72 13.12C124.79 13.12 123.99 13.32 123.32 13.71C122.68 14.1 122.17 14.68 121.8 15.45H121.63V13.45H119.59V25.42H121.63V19.19C121.63 17.93 121.95 16.91 122.58 16.17C122.907 15.7923 123.315 15.4935 123.774 15.2961C124.233 15.0987 124.731 15.0077 125.23 15.03C126.17 15.03 126.93 15.33 127.47 15.93C128.03 16.53 128.3 17.45 128.3 18.67V25.42H130.34V18.29C130.34 16.58 129.92 15.27 129.09 14.42ZM88.1 15C87.6037 14.4398 86.9979 13.9871 86.32 13.67C85.5169 13.2804 84.6323 13.0884 83.74 13.11C82.1508 13.1056 80.6213 13.7146 79.47 14.81C78.9074 15.3518 78.4645 16.0054 78.17 16.7288C77.8755 17.4522 77.7358 18.2293 77.76 19.01V19.57C77.76 20.49 77.9 21.33 78.2 22.08C78.6086 23.1963 79.3618 24.1536 80.3505 24.8134C81.3393 25.4732 82.5124 25.8012 83.7 25.75C85.25 25.75 86.5 25.4 87.42 24.71C88.3305 24.026 88.9995 23.0698 89.33 21.98L89.36 21.91L87.42 21.39L87.39 21.46C87.29 21.78 87.13 22.1 86.94 22.4C86.77 22.67 86.54 22.92 86.24 23.14C85.95 23.35 85.6 23.53 85.19 23.65C84.79 23.77 84.29 23.84 83.74 23.84C83.2183 23.8704 82.6959 23.7928 82.2055 23.6121C81.7152 23.4315 81.2673 23.1516 80.89 22.79C80.2061 22.0552 79.818 21.0936 79.8 20.09H89.48V18.48C89.48 17.95 89.36 17.36 89.14 16.74C88.915 16.0954 88.5612 15.5034 88.1 15ZM79.86 18.21C79.9966 17.3423 80.4274 16.5479 81.08 15.96C81.6321 15.5164 82.2874 15.2196 82.985 15.0972C83.6826 14.9748 84.3999 15.0308 85.07 15.26C85.51 15.42 85.9 15.64 86.23 15.92C86.58 16.19 86.85 16.54 87.06 16.94C87.26 17.32 87.39 17.74 87.43 18.21H79.86ZM73.65 19.42C72.691 18.7824 71.5713 18.4288 70.42 18.4C69.496 18.3955 68.5832 18.198 67.74 17.82C67.27 17.52 67.04 17.12 67.04 16.57C67.04 16.3 67.12 16.07 67.25 15.87C67.39 15.67 67.58 15.49 67.81 15.35C68.3635 15.0761 68.9724 14.9324 69.59 14.93C70.44 14.93 71.13 15.14 71.65 15.56C72.18 15.97 72.48 16.56 72.56 17.29L72.57 17.39L74.52 16.92L74.51 16.85C74.44 16.4 74.29 15.94 74.06 15.49C73.8398 15.0251 73.5186 14.6151 73.12 14.29C72.6713 13.916 72.1554 13.6309 71.6 13.45C70.9256 13.2135 70.2146 13.0984 69.5 13.11C68.92 13.11 68.37 13.18 67.85 13.33C67.33 13.47 66.85 13.69 66.42 13.98C66.01 14.28 65.68 14.64 65.43 15.08C65.175 15.5344 65.0472 16.0491 65.06 16.57V16.71C65.06 17.77 65.44 18.58 66.2 19.13C67.1692 19.7473 68.291 20.0832 69.44 20.1C70.62 20.18 71.48 20.36 72 20.64C72.5 20.92 72.75 21.36 72.75 22C72.75 22.6 72.5 23.06 71.97 23.4C71.45 23.72 70.75 23.88 69.87 23.88C68.9815 23.9226 68.1076 23.642 67.41 23.09C66.7952 22.5414 66.4215 21.7724 66.37 20.95V20.86L64.44 21.32H64.42V21.39C64.4622 22.2947 64.7826 23.1644 65.3374 23.8803C65.8922 24.5962 66.6544 25.1234 67.52 25.39C68.22 25.63 69.04 25.75 69.98 25.75C70.68 25.75 71.33 25.66 71.91 25.48C72.51 25.32 73.03 25.08 73.44 24.76C73.8689 24.4404 74.2158 24.0235 74.4523 23.5437C74.6887 23.0639 74.8079 22.5348 74.8 22V21.86C74.8 20.79 74.41 19.96 73.66 19.42H73.65ZM60.25 23.4C60.15 23.3 60.11 23.13 60.11 22.91V13.45H58.06V15.3H57.9C57.5449 14.6032 56.9824 14.0337 56.29 13.67C55.5968 13.2935 54.8188 13.1007 54.03 13.11C53.26 13.11 52.53 13.25 51.84 13.52C51.1439 13.7957 50.5145 14.2165 49.9937 14.7545C49.473 15.2925 49.0729 15.9353 48.82 16.64C48.53 17.39 48.38 18.27 48.38 19.24V19.62C48.38 20.61 48.53 21.49 48.82 22.25C49.12 23 49.52 23.65 50.02 24.18C50.5524 24.7039 51.1863 25.1134 51.8828 25.3834C52.5793 25.6534 53.3236 25.7781 54.07 25.75C54.87 25.75 55.58 25.55 56.27 25.17C56.96 24.79 57.51 24.2 57.9 23.42H58.06V23.48C58.06 24.04 58.24 24.51 58.59 24.88C58.96 25.23 59.44 25.42 60 25.42H61.36V23.55H60.68C60.48 23.55 60.34 23.5 60.25 23.4ZM55.79 23.53C55.33 23.73 54.82 23.83 54.27 23.83C53.7612 23.8485 53.254 23.7611 52.7807 23.5735C52.3073 23.3859 51.878 23.1021 51.52 22.74C50.7813 21.874 50.4052 20.7564 50.47 19.62V19.24C50.47 18.62 50.57 18.04 50.76 17.53C50.9211 17.0411 51.1838 16.5918 51.5308 16.2116C51.8778 15.8315 52.3013 15.529 52.7735 15.324C53.2457 15.1191 53.7559 15.0164 54.2706 15.0226C54.7853 15.0288 55.2929 15.1438 55.76 15.36C56.23 15.56 56.64 15.85 56.97 16.22C57.32 16.59 57.59 17.05 57.77 17.58C57.97 18.08 58.07 18.66 58.07 19.28V19.58C58.07 20.21 57.97 20.81 57.77 21.34C57.59 21.84 57.32 22.3 56.99 22.67C56.66 23.04 56.26 23.33 55.79 23.53Z" fill="white"/>
</g>
</g>
</g>
</g>
<defs>
<clipPath id="clip0_10_104">
<rect width="131" height="34" fill="white"/>
</clipPath>
</defs>
</svg>
