<svg width="110" height="35" viewBox="0 0 110 35" fill="none" xmlns="http://www.w3.org/2000/svg">
<rect width="110" height="35" fill="#1E1E1E"/>
<g id="Logos">
<path d="M-905.5 -1427.11C-905.5 -1428.22 -904.605 -1429.11 -903.5 -1429.11H2345.5C2346.6 -1429.11 2347.5 -1428.22 2347.5 -1427.11V2309.89C2347.5 2310.99 2346.6 2311.89 2345.5 2311.89H-903.5C-904.605 2311.89 -905.5 2310.99 -905.5 2309.89V-1427.11Z" fill="#444444"/>
<path d="M-903.5 -1429.11V-1428.11H2345.5V-1429.11V-1430.11H-903.5V-1429.11ZM2347.5 -1427.11H2346.5V2309.89H2347.5H2348.5V-1427.11H2347.5ZM2345.5 2311.89V2310.89H-903.5V2311.89V2312.89H2345.5V2311.89ZM-905.5 2309.89H-904.5V-1427.11H-905.5H-906.5V2309.89H-905.5ZM-903.5 2311.89V2310.89C-904.052 2310.89 -904.5 2310.44 -904.5 2309.89H-905.5H-906.5C-906.5 2311.54 -905.157 2312.89 -903.5 2312.89V2311.89ZM2347.5 2309.89H2346.5C2346.5 2310.44 2346.05 2310.89 2345.5 2310.89V2311.89V2312.89C2347.16 2312.89 2348.5 2311.54 2348.5 2309.89H2347.5ZM2345.5 -1429.11V-1428.11C2346.05 -1428.11 2346.5 -1427.66 2346.5 -1427.11H2347.5H2348.5C2348.5 -1428.77 2347.16 -1430.11 2345.5 -1430.11V-1429.11ZM-903.5 -1429.11V-1430.11C-905.157 -1430.11 -906.5 -1428.77 -906.5 -1427.11H-905.5H-904.5C-904.5 -1427.66 -904.052 -1428.11 -903.5 -1428.11V-1429.11Z" fill="white" fill-opacity="0.1"/>
<g id="Frame 4">
<g id="Frame 7">
<g id="ForeFlight">
<path id="Vector" d="M18.1441 17.8739L17.9909 20.7252L19.8261 22.2599L19.5815 22.9025L17.8696 22.4115L17.6239 23.5158C17.6239 23.5158 17.3249 23.5706 17.0339 23.5839C16.8185 23.5919 16.4652 23.5158 16.4652 23.5158L16.2205 22.4115L14.5065 22.9025L14.264 22.2599L16.0987 20.7252L15.9466 17.8739L10.6243 18.5787L10.1646 17.6882L15.9152 15.2348C15.9152 15.2348 15.9247 13.3995 15.9604 12.7181C15.9897 12.151 16.1285 10.5141 17.0461 10.5131C17.959 10.5141 18.092 12.1648 18.1217 12.7335C18.1579 13.4144 18.1761 15.2348 18.1761 15.2348L23.9254 17.6882L23.4653 18.5787L18.1441 17.8739ZM31.807 25.567L23.0712 23.0706L25.5682 31.8054L19.2506 25.2766L17.0451 34.0901L14.8396 25.2766L8.52305 31.8054L11.018 23.0706L2.28423 25.567L8.81299 19.2495L0 17.0445L8.81299 14.8385L2.28423 8.52144L11.018 11.0185L8.52305 2.28317L14.8396 8.81245L17.0451 0L19.2506 8.81245L25.5682 2.28317L23.0712 11.0185L31.807 8.52144L25.2777 14.8385L34.0902 17.0445L25.2777 19.2495L31.807 25.567ZM25.4538 17.0445C25.4538 12.401 21.6891 8.63636 17.0451 8.63636C12.4011 8.63636 8.63586 12.401 8.63586 17.0445C8.63586 21.688 12.4011 25.4538 17.0451 25.4538C21.6891 25.4538 25.4538 21.6891 25.4538 17.0445Z" fill="white"/>
<path id="Vector_2" d="M39.5598 7.1908H46.0333V8.77711H41.6068V11.6971H45.7338V13.2834H41.6068V17.7737H39.5598V7.1908Z" fill="white"/>
<path id="Vector_3" d="M55.2814 13.8797C55.2814 16.69 53.1845 17.9465 51.1215 17.9465C48.8245 17.9465 47.061 16.4549 47.061 14.0052C47.061 11.4933 48.8085 9.95435 51.2545 9.95435C53.6674 9.95435 55.2814 11.5561 55.2814 13.8797ZM49.1745 13.9584C49.1745 15.434 49.9395 16.549 51.1875 16.549C52.3525 16.549 53.168 15.4654 53.168 13.927C53.168 12.7333 52.6025 11.3678 51.2045 11.3678C49.7565 11.3678 49.1745 12.6865 49.1745 13.9584Z" fill="white"/>
<path id="Vector_4" d="M56.7799 12.5923C56.7799 11.5561 56.7634 10.8183 56.7134 10.1272H58.4939L58.5604 11.5875H58.6274C59.0264 10.5039 59.9748 9.95435 60.8404 9.95435C61.0399 9.95435 61.1564 9.9703 61.3229 10.0017V11.8231C61.1564 11.7917 60.9734 11.7603 60.7234 11.7603C59.7419 11.7603 59.0764 12.3566 58.8934 13.22C58.8599 13.3929 58.8264 13.5972 58.8264 13.8169V17.7736H56.7799V12.5923Z" fill="white"/>
<path id="Vector_5" d="M63.9625 14.4919C64.0125 15.874 65.161 16.4703 66.4585 16.4703C67.4069 16.4703 68.0895 16.3448 68.7049 16.1251L69.0049 17.4598C68.3059 17.7263 67.3404 17.9305 66.176 17.9305C63.5465 17.9305 61.999 16.4075 61.999 14.068C61.999 11.9487 63.3635 9.95435 65.9595 9.95435C68.5884 9.95435 69.4539 11.9954 69.4539 13.6754C69.4539 14.0366 69.421 14.3196 69.3869 14.4919H63.9625ZM67.5234 13.1418C67.5399 12.4354 67.2074 11.2736 65.8429 11.2736C64.5779 11.2736 64.046 12.3566 63.9625 13.1418H67.5234Z" fill="white"/>
<path id="Vector_6" d="M71.1105 7.1908H77.5839V8.77711H73.1574V11.6971H77.2844V13.2834H73.1574V17.7737H71.1105V7.1908Z" fill="white"/>
<path id="Vector_7" d="M79.0239 6.62585H81.0879V17.7737H79.0239V6.62585Z" fill="white"/>
<path id="Vector_8" d="M85.2595 7.9919C85.2595 8.5728 84.8105 9.0282 84.0945 9.0282C83.4125 9.0282 82.963 8.5728 82.963 7.9919C82.963 7.39505 83.429 6.9397 84.1115 6.9397C84.8105 6.9397 85.2425 7.39505 85.2595 7.9919ZM83.0795 17.7736V10.1272H85.143V17.7736H83.0795Z" fill="white"/>
<path id="Vector_9" d="M94.5391 10.1272C94.5056 10.6453 94.4721 11.2735 94.4721 12.3252V16.6586C94.4721 18.2603 94.1231 19.4067 93.2741 20.1286C92.4256 20.8356 91.2611 21.0553 90.1461 21.0553C89.1141 21.0553 88.0162 20.851 87.3172 20.443L87.7661 18.9828C88.2822 19.2652 89.1471 19.5637 90.1291 19.5637C91.4601 19.5637 92.4591 18.9041 92.4591 17.2555V16.5958H92.4256C91.9596 17.2714 91.1276 17.7262 90.0626 17.7262C88.0491 17.7262 86.6182 16.1564 86.6182 13.9898C86.6182 11.4774 88.3486 9.95435 90.2956 9.95435C91.5271 9.95435 92.2591 10.5198 92.6421 11.1475H92.6751L92.7581 10.1272L94.5391 10.1272ZM92.4256 13.1887C92.4256 13.0163 92.4091 12.828 92.3591 12.6705C92.1426 11.9641 91.5601 11.4305 90.6951 11.4305C89.5471 11.4305 88.6981 12.3726 88.6981 13.927C88.6981 15.2298 89.3971 16.282 90.6781 16.282C91.4442 16.282 92.1091 15.8112 92.3421 15.1202C92.3921 14.9159 92.4256 14.6488 92.4256 14.4292L92.4256 13.1887Z" fill="white"/>
<path id="Vector_10" d="M96.4802 6.62585H98.5437V11.1789H98.5767C98.8267 10.8182 99.1597 10.5198 99.5917 10.3001C99.9917 10.0799 100.474 9.95436 100.99 9.95436C102.371 9.95436 103.819 10.8182 103.819 13.2674V17.7737H101.772V13.4871C101.772 12.3726 101.339 11.5401 100.208 11.5401C99.4087 11.5401 98.8432 12.0428 98.6267 12.6237C98.5602 12.7806 98.5437 12.9849 98.5437 13.2046V17.7737H96.4803L96.4802 6.62585Z" fill="white"/>
<path id="Vector_11" d="M108.053 7.94458V10.1272H110V11.5715H108.053V14.9473C108.053 15.874 108.319 16.3607 109.102 16.3607C109.451 16.3607 109.717 16.3134 109.9 16.2661L109.934 17.7422C109.634 17.8524 109.102 17.9306 108.453 17.9306C107.704 17.9306 107.071 17.6949 106.689 17.3029C106.256 16.863 106.056 16.1719 106.056 15.167V11.5715H104.892V10.1272H106.056V8.39998L108.053 7.94458Z" fill="white"/>
<path id="Vector_12" d="M45.6794 24.6904H46.2481L48.3423 30.0315H47.7962L47.1456 28.3706H44.7144L44.0713 30.0315H43.5253L45.6794 24.6904ZM44.8713 27.9367H46.9731L45.9408 25.1993L44.8713 27.9367Z" fill="white"/>
<path id="Vector_13" d="M50.9053 24.6906H53.1645C54.062 24.6906 54.8771 25.0053 54.8771 25.9999C54.8771 26.5606 54.5035 27.077 53.9499 27.1966V27.2107C54.6377 27.3012 55.0792 27.8171 55.0792 28.513C55.0792 29.0219 54.8997 30.0311 53.1645 30.0311H50.9053V24.6906ZM51.4142 27.0322H53.1645C53.9796 27.0322 54.3683 26.6284 54.3683 26.1266C54.3683 25.4609 53.9575 25.1245 53.1645 25.1245H51.4142V27.0322ZM51.4142 29.5971H53.1645C53.9197 29.6047 54.5704 29.3507 54.5704 28.4974C54.5704 27.8171 54.054 27.4651 53.1645 27.4651H51.4142V29.5971Z" fill="white"/>
<path id="Vector_14" d="M59.348 28.1017C59.348 29.2089 58.7049 30.1437 57.5232 30.1437C56.3416 30.1437 55.698 29.2089 55.698 28.1017C55.698 26.9944 56.3416 26.0592 57.5232 26.0592C58.7049 26.0592 59.348 26.995 59.348 28.1017ZM56.1692 28.1017C56.1692 28.9243 56.6182 29.7464 57.5232 29.7464C58.4283 29.7464 58.8769 28.9243 58.8769 28.1017C58.8769 27.2786 58.4283 26.4559 57.5232 26.4559C56.6182 26.4559 56.1692 27.2786 56.1692 28.1017Z" fill="white"/>
<path id="Vector_15" d="M60.4161 28.2286C60.4236 28.917 60.7826 29.7467 61.6877 29.7467C62.3761 29.7467 62.7502 29.3429 62.8995 28.7591H63.3712C63.169 29.6345 62.6602 30.1434 61.6877 30.1434C60.4613 30.1434 59.9454 29.2006 59.9454 28.1019C59.9454 27.0842 60.4613 26.0594 61.6877 26.0594C62.9297 26.0594 63.4235 27.1446 63.3858 28.2286L60.4161 28.2286ZM62.9146 27.8319C62.8925 27.1214 62.451 26.4562 61.6877 26.4562C60.9179 26.4562 60.491 27.1289 60.4161 27.8319H62.9146Z" fill="white"/>
<path id="Vector_16" d="M64.1324 24.6907H64.6036V25.4454H64.1324V24.6907ZM64.1324 26.1715H64.6036V30.0312H64.1324V26.1715Z" fill="white"/>
<path id="Vector_17" d="M65.5605 26.1713H66.0317V26.8371H66.0463C66.2187 26.374 66.7346 26.0592 67.2807 26.0592C68.3653 26.0592 68.6947 26.6284 68.6947 27.5481V30.031H68.2235V27.623C68.2235 26.9573 68.0063 26.4559 67.2435 26.4559C66.4953 26.4559 66.0463 27.0241 66.0317 27.7799V30.0311H65.5605V26.1713Z" fill="white"/>
<path id="Vector_18" d="M72.9116 29.7166C72.9041 30.8691 72.4626 31.572 71.1985 31.572C70.4287 31.572 69.6654 31.2276 69.5985 30.405H70.0692C70.1742 30.9742 70.6751 31.1758 71.1985 31.1758C72.0664 31.1758 72.4405 30.6594 72.4405 29.7166V29.1932H72.4254C72.2087 29.6648 71.7526 29.9866 71.1985 29.9866C69.9645 29.9866 69.4557 29.1037 69.4557 28.004C69.4557 26.942 70.0842 26.0591 71.1985 26.0591C71.7596 26.0591 72.2383 26.4116 72.4254 26.8369H72.4405V26.1712H72.9116V29.7166ZM72.4405 28.0563C72.4405 27.3016 72.089 26.4558 71.1985 26.4558C70.3015 26.4558 69.9268 27.2568 69.9268 28.0563C69.9268 28.8347 70.3311 29.5899 71.1985 29.5899C72.0141 29.5899 72.4405 28.8422 72.4405 28.0563Z" fill="white"/>
<path id="Vector_19" d="M79.8805 26.3064C79.7015 25.4828 79.0207 25.0127 78.2423 25.0127C76.8289 25.0127 76.2305 26.1943 76.2305 27.3604C76.2305 28.5274 76.8289 29.7096 78.2423 29.7096C79.2299 29.7096 79.8584 28.9468 79.955 27.997H80.4643C80.3215 29.3053 79.4919 30.1435 78.2424 30.1435C76.5599 30.1435 75.7217 28.8196 75.7217 27.3604C75.7217 25.9027 76.5599 24.5782 78.2424 24.5782C79.252 24.5782 80.2547 25.1841 80.3894 26.3065L79.8805 26.3064Z" fill="white"/>
<path id="Vector_20" d="M84.6958 28.1017C84.6958 29.2089 84.0522 30.1437 82.8705 30.1437C81.6889 30.1437 81.0453 29.2089 81.0453 28.1017C81.0453 26.9944 81.6889 26.0592 82.8705 26.0592C84.0522 26.0592 84.6958 26.995 84.6958 28.1017ZM81.5164 28.1017C81.5164 28.9243 81.9654 29.7464 82.8705 29.7464C83.7756 29.7464 84.2241 28.9243 84.2241 28.1017C84.2241 27.2786 83.7756 26.4559 82.8705 26.4559C81.9654 26.4559 81.5164 27.2786 81.5164 28.1017Z" fill="white"/>
<path id="Vector_21" d="M85.4718 26.1713H85.9058V26.8225H85.9284C86.1753 26.3584 86.579 26.0592 87.1925 26.0592C87.7008 26.0592 88.1574 26.3066 88.2997 26.815C88.5315 26.3066 89.0177 26.0592 89.5261 26.0592C90.3713 26.0592 90.8053 26.5007 90.8053 27.4133V30.031H90.3336V27.4359C90.3336 26.7999 90.0943 26.4559 89.4215 26.4559C88.6064 26.4559 88.3741 27.1287 88.3741 27.8472V30.031H87.9025V27.4133C87.9105 26.8899 87.6933 26.4559 87.0954 26.4559C86.2798 26.4559 85.9505 27.0694 85.9429 27.8774V30.031H85.4718L85.4718 26.1713Z" fill="white"/>
<path id="Vector_22" d="M91.7755 26.1713H92.209V26.9044H92.2245C92.4413 26.381 92.9798 26.0592 93.6003 26.0592C94.7744 26.0592 95.336 27.0095 95.336 28.1017C95.336 29.1938 94.7743 30.1432 93.6003 30.1432C93.0245 30.1432 92.4634 29.8515 92.2618 29.2979H92.2467V31.4601H91.7755L91.7755 26.1713ZM93.6003 26.4559C92.561 26.4559 92.2467 27.2262 92.2467 28.1017C92.2467 28.9017 92.5982 29.7464 93.6003 29.7464C94.4979 29.7464 94.8644 28.9016 94.8644 28.1017C94.8644 27.3012 94.4979 26.4559 93.6003 26.4559Z" fill="white"/>
<path id="Vector_23" d="M96.0746 27.3535C96.1193 26.4484 96.7554 26.0592 97.6378 26.0592C98.3187 26.0592 99.0588 26.2689 99.0588 27.3012V29.3507C99.0588 29.5297 99.1489 29.6348 99.3359 29.6348C99.3882 29.6348 99.448 29.6197 99.4852 29.6046V30.0014C99.3807 30.024 99.3057 30.031 99.179 30.031C98.7003 30.031 98.6249 29.762 98.6249 29.3582H98.6103C98.2815 29.859 97.9446 30.1432 97.2039 30.1432C96.4935 30.1432 95.9102 29.7922 95.9102 29.0138C95.9102 27.9297 96.9646 27.892 97.9823 27.7728C98.371 27.7271 98.5877 27.6748 98.5877 27.2484C98.5877 26.6128 98.1316 26.4559 97.578 26.4559C96.9947 26.4559 96.5608 26.7249 96.5457 27.3535L96.0746 27.3535ZM98.5877 27.9222H98.5731C98.5128 28.0343 98.3036 28.0715 98.1764 28.0936C97.3764 28.236 96.3813 28.2284 96.3813 28.9842C96.3813 29.4548 96.8001 29.7464 97.2411 29.7464C97.9592 29.7464 98.5952 29.2909 98.5877 28.5351V27.9222Z" fill="white"/>
<path id="Vector_24" d="M100.097 26.1713H100.569V26.8371H100.583C100.756 26.374 101.271 26.0592 101.818 26.0592C102.902 26.0592 103.231 26.6284 103.231 27.5481V30.031H102.76V27.623C102.76 26.9573 102.543 26.4559 101.78 26.4559C101.032 26.4559 100.583 27.0241 100.569 27.7799V30.0311H100.097V26.1713Z" fill="white"/>
<path id="Vector_25" d="M103.672 26.1714H104.173L105.444 29.4629L106.634 26.1714H107.105L105.429 30.6224C105.16 31.2731 105.003 31.4601 104.412 31.4601C104.225 31.4526 104.128 31.4526 104.053 31.4224V31.0262C104.165 31.0488 104.269 31.0634 104.374 31.0634C104.793 31.0634 104.891 30.8165 105.048 30.458L105.212 30.0165L103.672 26.1714Z" fill="white"/>
</g>
</g>
</g>
</g>
</svg>
