<svg width="51" height="49" viewBox="0 0 51 49" fill="none" xmlns="http://www.w3.org/2000/svg">
<rect width="51" height="49" fill="#1E1E1E"/>
<g id="Logos">
<path d="M-916.287 -3138.93C-916.287 -3140.03 -915.392 -3140.93 -914.287 -3140.93H2334.71C2335.82 -3140.93 2336.71 -3140.03 2336.71 -3138.93V598.072C2336.71 599.177 2335.82 600.072 2334.71 600.072H-914.287C-915.392 600.072 -916.287 599.176 -916.287 598.072V-3138.93Z" fill="#444444"/>
<path d="M-914.287 -3140.93V-3139.93H2334.71V-3140.93V-3141.93H-914.287V-3140.93ZM2336.71 -3138.93H2335.71V598.072H2336.71H2337.71V-3138.93H2336.71ZM2334.71 600.072V599.072H-914.287V600.072V601.072H2334.71V600.072ZM-916.287 598.072H-915.287V-3138.93H-916.287H-917.287V598.072H-916.287ZM-914.287 600.072V599.072C-914.839 599.072 -915.287 598.624 -915.287 598.072H-916.287H-917.287C-917.287 599.729 -915.944 601.072 -914.287 601.072V600.072ZM2336.71 598.072H2335.71C2335.71 598.624 2335.27 599.072 2334.71 599.072V600.072V601.072C2336.37 601.072 2337.71 599.729 2337.71 598.072H2336.71ZM2334.71 -3140.93V-3139.93C2335.27 -3139.93 2335.71 -3139.48 2335.71 -3138.93H2336.71H2337.71C2337.71 -3140.59 2336.37 -3141.93 2334.71 -3141.93V-3140.93ZM-914.287 -3140.93V-3141.93C-915.944 -3141.93 -917.287 -3140.59 -917.287 -3138.93H-916.287H-915.287C-915.287 -3139.48 -914.839 -3139.93 -914.287 -3139.93V-3140.93Z" fill="white" fill-opacity="0.1"/>
<g id="Frame 4">
<g id="Frame 14">
<g id="Frame" clip-path="url(#clip0_10_104)">
<path id="Vector" fill-rule="evenodd" clip-rule="evenodd" d="M48.2305 33.3983L47.0166 31.4642C46.3439 32.1011 45.5206 32.4651 44.7178 32.4651C44.3492 32.4651 44.1547 32.42 43.3519 32.2153C42.55 31.9871 41.9856 31.9188 41.3574 31.9188C38.5163 31.9188 36.6735 33.4666 36.6735 35.8562C36.6735 37.5853 37.4544 38.6552 39.0591 39.0875C38.4085 39.247 37.6926 39.5884 37.3675 39.9757C37.129 40.2486 37.0209 40.612 37.0209 41.0442C37.0209 41.4093 37.1077 41.7276 37.2373 42.0005C37.3888 42.2509 37.6058 42.4558 37.8664 42.5692C38.3861 42.7741 39.2321 42.9105 40.533 42.9337C41.2056 42.9337 41.6175 42.9565 41.7693 42.9565C42.5719 43.0021 42.9834 43.1379 43.2874 43.2977C43.5906 43.48 43.8075 43.8897 43.8075 44.3443C43.8075 44.7997 43.5257 45.2548 43.1138 45.5281C42.7236 45.801 42.0944 45.9151 41.2705 45.9151C39.9258 45.9151 39.1887 45.4142 39.1887 44.4809C39.1887 44.0712 39.2321 43.9799 39.3188 43.7299H36.6301C36.5219 43.9571 36.3704 44.2758 36.3704 44.9135C36.3704 45.7102 36.6735 46.3926 37.2807 46.9844C38.2785 47.9632 39.9047 48.2358 41.4875 48.2358C43.2218 48.2358 44.892 47.8267 45.8673 46.7336C46.474 46.051 46.756 45.3001 46.756 44.3218C46.756 43.275 46.4529 42.4783 45.8025 41.8413C45.0211 41.0898 44.1329 40.8166 42.4416 40.7942L40.8798 40.7717C40.5766 40.7717 40.4035 40.6583 40.4035 40.4987C40.4035 40.1798 40.8147 39.9066 41.5521 39.5429C41.7693 39.5654 41.856 39.5654 41.9856 39.5654C44.3492 39.5654 46.0841 38.1091 46.0841 36.1066C46.0841 35.3326 45.8673 34.7413 45.4331 34.1952C45.8025 34.2403 45.9105 34.2633 46.1925 34.2633C46.9944 34.2633 47.6015 34.0128 48.2305 33.3983ZM50.0187 22.1036C50.0187 20.7949 49.2094 19.5825 47.8332 18.5865C47.9574 18.9864 48.0271 19.3929 48.0271 19.8075C48.0271 23.555 42.7792 26.7613 35.3394 28.089C36.1809 28.1835 37.0538 28.2353 37.9514 28.2353C44.6162 28.2353 50.0187 25.4899 50.0187 22.1036ZM45.73 20.0652C45.73 23.6617 37.6622 26.5768 27.7097 26.5768C17.7578 26.5768 9.69042 23.6617 9.69042 20.0652C9.69042 18.9325 10.4909 17.8678 11.8985 16.9405C11.6809 17.3382 11.5655 17.7496 11.5655 18.1712C11.5655 21.4934 18.6614 24.1865 27.4152 24.1865C36.1692 24.1865 43.2658 21.4934 43.2658 18.1712C43.2658 17.543 43.0101 16.9364 42.5388 16.3663C44.5489 17.4173 45.73 18.6913 45.73 20.0652ZM11.6814 14.3086C8.04631 15.1942 5.57714 16.9285 5.57714 18.9229C5.57714 20.1575 6.52422 21.2911 8.10571 22.1868C7.63075 21.4289 7.37215 20.6315 7.37215 19.8075C7.37215 17.7331 8.9835 15.8252 11.6814 14.3086ZM47.2281 8.46143C46.8938 8.06024 46.4358 8.0615 46.0745 8.38779C45.7256 8.84894 45.7156 9.17708 45.9633 9.43187C46.2274 9.70426 46.7752 9.93894 47.1695 9.62685C47.564 9.3135 47.5625 8.86255 47.2281 8.46143ZM42.6493 9.95661C43.7773 8.38808 45.9353 11.1617 43.4892 11.5478C42.5103 11.7024 40.8574 12.77 40.1482 14.4551C39.1466 16.9489 39.58 18.7946 37.8582 19.9048C34.1863 22.2703 22.8741 23.1629 18.0031 20.1283C14.1848 17.7497 15.4949 13.9786 4.57313 5.66774C3.14485 4.58155 4.83641 3.42833 5.90623 4.16645C6.97592 4.9054 5.99679 5.10159 8.15443 7.25445C12.5125 11.6012 12.4687 7.69336 13.1569 9.17146C14.6041 12.2798 17.7967 15.4103 17.7967 15.4103C20.994 17.4854 23.5473 17.9389 28.2635 14.7571C31.2544 12.7394 30.0309 17.9663 37.366 14.1993C40.041 12.8251 39.9297 13.7362 42.6493 9.95661ZM10.8235 5.9691C10.6387 5.70973 10.0893 5.59035 9.72179 5.95907C9.35487 6.32776 9.53536 6.6923 9.74752 6.9114C10.0519 7.22522 10.5678 7.19943 10.8747 7.02891C11.183 6.85882 11.1181 6.38279 10.8235 5.9691ZM3.24087 3.08398C3.48043 2.82175 3.78296 2.32564 3.26329 1.37604C2.88402 0.680899 1.6298 0.396896 1.18714 0.661981C0.745912 0.927955 0.206114 1.95438 0.945257 2.40605C1.89768 2.98882 2.52198 3.86953 3.24087 3.08398ZM48.4601 1.79431C48.1246 1.30841 47.4167 1.39638 46.7159 1.90351C46.0147 2.41005 46.1474 3.37315 46.3792 3.5974C46.7858 3.99175 47.8696 3.72552 48.1221 3.44307C48.7725 2.71771 48.7952 2.28009 48.4601 1.79431ZM44.4254 4.87877C45.4291 4.40688 47.0075 5.94072 44.7231 7.09211C41.4583 8.73855 41.1123 10.7812 39.0496 12.0801C35.5808 14.2646 36.6422 12.1683 31.0622 11.375C28.9133 11.0693 28.222 13.4596 26.5445 12.7688C22.677 11.176 19.9758 11.481 17.4709 13.5125C16.5641 13.1137 15.6153 11.5741 15.2435 10.9568C16.2591 9.96504 15.849 8.30757 15.2755 7.39864C14.7027 6.4897 14.0087 6.74763 13.247 5.91136C12.4846 5.07623 13.5343 2.8964 14.5106 4.57096C18.1682 10.8456 20.5695 8.23562 23.5573 7.86135C26.4246 7.50238 28.9592 9.05959 29.7363 4.64877C29.8641 3.92784 30.5684 3.75531 30.6403 4.94754C30.7118 6.14062 31.1608 9.04562 32.7374 9.42056C34.3136 9.79498 35.565 9.05242 35.9341 8.64029C36.3033 8.22816 36.4966 8.28805 36.6586 9.31076C36.8212 10.3343 37.2209 11.7478 39.4343 10.1733C43.9612 6.95255 42.666 5.70644 44.4254 4.87877ZM30.9701 1.93131C30.9847 1.41586 30.7499 1.09275 30.24 1.11093C29.7302 1.12942 29.5474 1.3852 29.564 1.88273C29.6911 2.82447 29.85 2.80196 30.1881 2.88894C30.5263 2.97607 30.9554 2.44631 30.9701 1.93131ZM12.8214 2.81645C13.0434 2.53731 13.0647 2.16989 12.77 1.75578C12.5855 1.49667 11.722 1.319 11.3555 1.68757C10.9879 2.05654 11.3224 2.63603 11.6083 2.72387C12.1379 2.88652 12.3732 3.3786 12.8214 2.81645ZM43.0922 35.8787C43.0922 36.9485 42.463 37.5398 41.3138 37.5398C40.2946 37.5398 39.6007 37.0624 39.6007 35.8787C39.6007 34.7863 40.2298 34.1492 41.3357 34.1492C42.4416 34.1492 43.0922 34.7863 43.0922 35.8787ZM34.7655 42.4102C35.7205 41.2719 36.1532 39.9065 36.1532 37.9041C36.1532 36.0152 35.7632 34.7413 34.8745 33.6482C33.92 32.4651 32.6846 31.8965 31.1011 31.8965C28.1092 31.8965 26.1143 34.3308 26.1143 37.9955C26.1143 41.6591 28.0872 44.026 31.1011 44.026C32.8141 44.026 33.92 43.4117 34.7655 42.4102ZM32.9879 37.8816C32.9879 40.6355 32.4462 41.8181 31.1886 41.8181C30.6243 41.8181 29.9744 41.5001 29.7138 40.8631C29.4756 40.2704 29.3446 39.269 29.3446 37.9269C29.3446 36.7662 29.4534 35.9471 29.6486 35.3326C29.8868 34.6045 30.4506 34.1492 31.1445 34.1492C31.6648 34.1492 32.1201 34.3768 32.4022 34.7638C32.7926 35.2869 32.9879 36.3108 32.9879 37.8816ZM5.33451 45.8687L6.74294 47.5072C8.10942 46.9611 9.82235 45.7329 10.2559 43.7987C10.4076 43.1611 10.4722 42.7515 10.4722 40.7025V28.0408H7.39411V41.0442C7.39411 42.7515 7.32915 43.3884 7.0903 43.9571C6.8086 44.5946 6.11402 45.3681 5.33451 45.8687ZM12.4477 28.0048H12.1315V43.7756H15.1669V36.7885H19.0049V34.1952H15.1669V30.576H19.9585L20.1445 29.1991C17.2652 28.9795 14.6486 28.5175 12.4477 28.0048ZM22.539 31.8507C22.7995 32.3292 22.9505 32.8522 22.9944 33.5124C23.4067 32.9205 24.1005 32.306 24.6422 32.0323C24.8814 31.9188 25.2712 31.8507 25.5965 31.8507C26.0299 31.8507 26.225 31.8965 26.6803 32.1011L25.8782 34.7863C25.5965 34.6274 25.3581 34.5589 25.0328 34.5589C24.3822 34.5589 23.7967 34.8778 23.2545 35.5373V43.7756H20.3492V35.992C20.3492 34.4218 20.1756 33.2385 19.9372 32.5792L22.539 31.8507Z" fill="white"/>
</g>
</g>
</g>
</g>
<defs>
<clipPath id="clip0_10_104">
<rect width="50.426" height="48.9428" fill="white"/>
</clipPath>
</defs>
</svg>
