<svg width="160" height="46" viewBox="0 0 160 46" fill="none" xmlns="http://www.w3.org/2000/svg">
<rect width="160" height="46" fill="#1E1E1E"/>
<g id="Logos">
<path d="M-1182 -2384.89C-1182 -2385.99 -1181.1 -2386.89 -1180 -2386.89H2069C2070.1 -2386.89 2071 -2385.99 2071 -2384.89V1352.11C2071 1353.22 2070.1 1354.11 2069 1354.11H-1180C-1181.1 1354.11 -1182 1353.22 -1182 1352.11V-2384.89Z" fill="#444444"/>
<path d="M-1180 -2386.89V-2385.89H2069V-2386.89V-2387.89H-1180V-2386.89ZM2071 -2384.89H2070V1352.11H2071H2072V-2384.89H2071ZM2069 1354.11V1353.11H-1180V1354.11V1355.11H2069V1354.11ZM-1182 1352.11H-1181V-2384.89H-1182H-1183V1352.11H-1182ZM-1180 1354.11V1353.11C-1180.55 1353.11 -1181 1352.67 -1181 1352.11H-1182H-1183C-1183 1353.77 -1181.66 1355.11 -1180 1355.11V1354.11ZM2071 1352.11H2070C2070 1352.67 2069.55 1353.11 2069 1353.11V1354.11V1355.11C2070.66 1355.11 2072 1353.77 2072 1352.11H2071ZM2069 -2386.89V-2385.89C2069.55 -2385.89 2070 -2385.44 2070 -2384.89H2071H2072C2072 -2386.54 2070.66 -2387.89 2069 -2387.89V-2386.89ZM-1180 -2386.89V-2387.89C-1181.66 -2387.89 -1183 -2386.54 -1183 -2384.89H-1182H-1181C-1181 -2385.44 -1180.55 -2385.89 -1180 -2385.89V-2386.89Z" fill="white" fill-opacity="0.1"/>
<g id="Frame 4">
<g id="Frame 12">
<g id="Notion" clip-path="url(#clip0_10_104)">
<g id="Clip path group">
<mask id="mask0_10_104" style="mask-type:luminance" maskUnits="userSpaceOnUse" x="0" y="0" width="159" height="46">
<g id="a">
<path id="Vector" d="M0.291992 0H158.537V45.5474H0.291992V0Z" fill="white"/>
</g>
</mask>
<g mask="url(#mask0_10_104)">
<g id="Group">
<g id="Mask group">
<mask id="mask1_10_104" style="mask-type:luminance" maskUnits="userSpaceOnUse" x="0" y="0" width="44" height="46">
<g id="Group_2">
<path id="Vector_2" d="M43.887 0H0.291992V45.5399H43.887V0Z" fill="white" fill-opacity="0.95"/>
</g>
</mask>
<g mask="url(#mask1_10_104)">
<g id="Group_3">
<path id="Vector_3" fill-rule="evenodd" clip-rule="evenodd" d="M28.2323 0.103591L3.03243 1.96041C0.999496 2.13501 0.291992 3.46196 0.291992 5.05004V32.6138C0.291992 33.8527 0.732284 34.9109 1.79506 36.3244L7.71926 44.0113C8.69094 45.2487 9.57608 45.5144 11.4344 45.4233L40.6987 43.6576C43.1734 43.4815 43.8824 42.3321 43.8824 40.3888V9.38009C43.8824 8.37501 43.4846 8.08502 42.3125 7.23025C42.2457 7.18122 42.1789 7.13213 42.1121 7.08298L34.0685 1.42902C32.1236 0.0170509 31.325 -0.162102 28.2323 0.103591ZM12.0979 8.87147C9.70817 9.03241 9.16615 9.06885 7.80884 7.9666L4.35786 5.22768C4.00563 4.87393 4.18326 4.43212 5.06688 4.34558L29.2936 2.57834C31.3265 2.4007 32.3878 3.10972 33.1833 3.72613L37.3388 6.73074C37.5149 6.8188 37.9567 7.34867 37.4268 7.34867L12.4061 8.85174L12.0979 8.87147ZM9.31039 40.1231V13.7967C9.31039 12.6489 9.66414 12.119 10.7254 12.0294L39.4598 10.3518C40.4345 10.2637 40.8763 10.8832 40.8763 12.0294V38.1782C40.8763 39.3291 40.6987 40.3007 39.106 40.3888L11.6105 41.9799C10.0164 42.068 9.31039 41.5396 9.31039 40.1231ZM36.4567 15.2086C36.6328 16.0057 36.4567 16.8013 35.6581 16.8909L34.3342 17.155V36.5886C33.1833 37.2081 32.1221 37.5603 31.2384 37.5603C29.8234 37.5603 29.4697 37.12 28.4084 35.7946L19.7438 22.1911V35.3543L22.4857 35.9722C22.4857 35.9722 22.4857 37.5618 20.2721 37.5618L14.1733 37.9156C13.9957 37.5618 14.1733 36.6782 14.7928 36.5021L16.3839 36.0618V18.6551L14.1733 18.4774C13.9972 17.6819 14.4375 16.5341 15.6764 16.446L22.2201 16.0057L31.2384 29.7869V17.5953L28.9398 17.3312C28.7622 16.358 29.4697 15.6505 30.3533 15.5639L36.4567 15.2086Z" fill="white"/>
</g>
</g>
</g>
<path id="Vector_4" d="M77.7151 10.6581V35.2689H73.7874L62.1439 18.4315H61.9405V35.2689H57.5178V10.6581H61.4835L73.1011 27.4909H73.3289V10.6596H77.7166L77.7151 10.6581ZM89.4284 35.6272C87.6262 35.6272 86.0639 35.2309 84.7415 34.4369C83.4213 33.6454 82.3575 32.4899 81.6777 31.1089C80.9581 29.6833 80.5967 28.0177 80.5967 26.1108C80.5967 24.2039 80.9565 22.5338 81.6777 21.1006C82.3989 19.6674 83.4207 18.553 84.7415 17.7605C86.0624 16.9679 87.6262 16.5701 89.4284 16.5701C91.2229 16.5701 92.7806 16.9679 94.1015 17.7605C95.4224 18.553 96.4457 19.6674 97.1654 21.1006C97.8941 22.5338 98.2585 24.2039 98.2585 26.1108C98.2585 28.0177 97.8941 29.6833 97.1654 31.1089C96.4858 32.4904 95.4219 33.6465 94.1015 34.4384C92.7806 35.2309 91.2229 35.6272 89.4284 35.6272ZM89.4405 32.1656C90.4334 32.1656 91.2578 31.8984 91.9152 31.3609C92.5727 30.8174 93.0646 30.0886 93.3925 29.1746C93.722 28.2531 93.8859 27.2282 93.8859 26.0987C93.8859 24.9691 93.722 23.9443 93.3925 23.0227C93.0646 22.1011 92.5727 21.3678 91.9152 20.8243C91.2578 20.2716 90.4334 19.9953 89.4405 19.9953C88.4385 19.9953 87.6049 20.2716 86.9415 20.8243C86.2765 21.3693 85.78 22.1011 85.4505 23.0227C85.1317 23.9443 84.9708 24.9691 84.9708 26.0987C84.9708 27.2282 85.1302 28.2546 85.4505 29.1746C85.78 30.0886 86.2765 30.8174 86.9415 31.3609C87.6065 31.8984 88.4385 32.1656 89.4405 32.1656ZM110.107 16.8131V20.1532H99.5338V16.8131H110.107ZM102.151 12.3889H106.466V29.7273C106.466 30.3118 106.554 30.7597 106.73 31.074C106.914 31.3852 107.155 31.5978 107.451 31.7101C107.748 31.8225 108.08 31.8771 108.449 31.8771C108.698 31.8792 108.947 31.8594 109.193 31.8179C109.418 31.7784 109.594 31.742 109.723 31.7101L110.442 35.0867C110.119 35.1917 109.791 35.2798 109.459 35.3509C109.033 35.4465 108.513 35.5027 107.895 35.5179C106.814 35.5513 105.838 35.3873 104.965 35.026C104.124 34.6773 103.405 34.0878 102.898 33.3316C102.393 32.5634 102.145 31.5978 102.153 30.4363V12.3889H102.151ZM112.753 35.2674V16.8115H117.08V35.2674H112.753ZM114.929 14.1789C114.24 14.1789 113.65 13.9512 113.162 13.4957C112.929 13.2867 112.743 13.0307 112.617 12.7447C112.49 12.4586 112.426 12.149 112.428 11.8362C112.428 11.188 112.673 10.6353 113.162 10.1783C113.636 9.72269 114.27 9.47229 114.927 9.48144C115.617 9.48144 116.206 9.71374 116.695 10.1798C117.191 10.6353 117.439 11.188 117.439 11.8362C117.439 12.4769 117.191 13.0296 116.695 13.4942C116.206 13.9512 115.617 14.1804 114.929 14.1804V14.1789ZM128.578 35.6272C126.776 35.6272 125.213 35.2309 123.891 34.4369C122.571 33.6455 121.507 32.4899 120.827 31.1089C120.108 29.6833 119.746 28.0177 119.746 26.1108C119.746 24.2039 120.108 22.5338 120.827 21.1006C121.548 19.6674 122.57 18.553 123.891 17.7605C125.213 16.9679 126.776 16.5701 128.578 16.5701C130.372 16.5701 131.93 16.9679 133.251 17.7605C134.573 18.553 135.595 19.6674 136.316 21.1006C137.045 22.5338 137.41 24.2039 137.41 26.1108C137.41 28.0177 137.045 29.6833 136.316 31.1089C135.637 32.4907 134.572 33.6469 133.251 34.4384C131.93 35.2309 130.372 35.6272 128.578 35.6272ZM128.59 32.1656C129.583 32.1656 130.407 31.8984 131.065 31.3609C131.722 30.8174 132.214 30.0886 132.544 29.1746C132.872 28.2531 133.035 27.2282 133.035 26.0987C133.035 24.9691 132.872 23.9443 132.544 23.0227C132.214 22.1011 131.722 21.3678 131.065 20.8243C130.407 20.2716 129.583 19.9953 128.59 19.9953C127.588 19.9953 126.756 20.2716 126.091 20.8243C125.426 21.3693 124.93 22.1011 124.6 23.0227C124.281 23.9443 124.12 24.9691 124.12 26.0987C124.12 27.2282 124.28 28.2546 124.6 29.1746C124.93 30.0886 125.426 30.8174 126.091 31.3609C126.756 31.8984 127.588 32.1656 128.59 32.1656ZM144.389 24.4407V35.2659H140.065V16.8131H144.198V19.9361H144.415C144.824 18.9301 145.532 18.0745 146.445 17.4856C147.381 16.8768 148.54 16.5717 149.918 16.5717C151.183 16.5717 152.288 16.8449 153.234 17.39C154.192 17.9398 154.962 18.7644 155.445 19.7569C155.973 20.7894 156.237 22.0434 156.237 23.5176V35.2689H151.926V24.1781C151.926 22.9437 151.604 21.9797 150.963 21.2828C150.321 20.5783 149.436 20.2246 148.306 20.2246C147.547 20.2246 146.87 20.3931 146.276 20.7301C145.684 21.0581 145.219 21.5379 144.882 22.1725C144.554 22.795 144.389 23.5541 144.389 24.4423V24.4407Z" fill="white"/>
</g>
</g>
</g>
</g>
</g>
</g>
</g>
<defs>
<clipPath id="clip0_10_104">
<rect width="160" height="45.5474" fill="white"/>
</clipPath>
</defs>
</svg>
