<svg width="118" height="34" viewBox="0 0 118 34" fill="none" xmlns="http://www.w3.org/2000/svg">
<rect width="118" height="34" fill="#1E1E1E"/>
<g id="Logos">
<path d="M-297.5 -959.952C-297.5 -961.057 -296.605 -961.952 -295.5 -961.952H2953.5C2954.6 -961.952 2955.5 -961.057 2955.5 -959.952V2777.05C2955.5 2778.15 2954.6 2779.05 2953.5 2779.05H-295.5C-296.605 2779.05 -297.5 2778.15 -297.5 2777.05V-959.952Z" fill="#444444"/>
<path d="M-295.5 -961.952V-960.952H2953.5V-961.952V-962.952H-295.5V-961.952ZM2955.5 -959.952H2954.5V2777.05H2955.5H2956.5V-959.952H2955.5ZM2953.5 2779.05V2778.05H-295.5V2779.05V2780.05H2953.5V2779.05ZM-297.5 2777.05H-296.5V-959.952H-297.5H-298.5V2777.05H-297.5ZM-295.5 2779.05V2778.05C-296.052 2778.05 -296.5 2777.6 -296.5 2777.05H-297.5H-298.5C-298.5 2778.7 -297.157 2780.05 -295.5 2780.05V2779.05ZM2955.5 2777.05H2954.5C2954.5 2777.6 2954.05 2778.05 2953.5 2778.05V2779.05V2780.05C2955.16 2780.05 2956.5 2778.7 2956.5 2777.05H2955.5ZM2953.5 -961.952V-960.952C2954.05 -960.952 2954.5 -960.504 2954.5 -959.952H2955.5H2956.5C2956.5 -961.609 2955.16 -962.952 2953.5 -962.952V-961.952ZM-295.5 -961.952V-962.952C-297.157 -962.952 -298.5 -961.609 -298.5 -959.952H-297.5H-296.5C-296.5 -960.504 -296.052 -960.952 -295.5 -960.952V-961.952Z" fill="white" fill-opacity="0.1"/>
<g id="Frame 4">
<g id="Frame 5">
<g id="shopify" clip-path="url(#clip0_10_104)">
<g id="Group">
<g id="Group_2">
<path id="s_5_" d="M40.8228 18.9067C39.8181 18.3467 39.2893 17.8934 39.2893 17.2534C39.2893 16.4267 40.0031 15.92 41.1401 15.92C42.462 15.92 43.6254 16.48 43.6254 16.48L44.5508 13.6267C44.5508 13.6267 43.7047 12.96 41.1929 12.96C37.7029 12.96 35.2705 14.9867 35.2705 17.8134C35.2705 19.4134 36.4074 20.64 37.9144 21.52C39.1306 22.2134 39.5537 22.72 39.5537 23.44C39.5537 24.2134 38.9456 24.8267 37.8087 24.8267C36.1165 24.8267 34.5301 23.9467 34.5301 23.9467L33.5519 26.8C33.5519 26.8 35.0325 27.7867 37.4914 27.7867C41.0872 27.7867 43.6518 26 43.6518 22.8C43.7047 21.04 42.3827 19.8134 40.8228 18.9067Z" fill="white"/>
<path id="h_5_" d="M55.153 12.9067C53.3816 12.9067 52.0067 13.76 50.9227 15.04L50.8698 15.0133L52.4033 6.90668H48.3845L44.4979 27.52H48.4902L49.8122 20.48C50.341 17.8133 51.6894 16.1867 52.9585 16.1867C53.8575 16.1867 54.2012 16.8 54.2012 17.68C54.2012 18.24 54.1483 18.9067 54.0161 19.4667L52.5091 27.5467H56.5014L58.0614 19.2267C58.2465 18.3467 58.3522 17.3067 58.3522 16.5867C58.4051 14.2667 57.2418 12.9067 55.153 12.9067Z" fill="white"/>
<path id="o_5_" d="M67.4475 12.9067C62.6355 12.9067 59.4363 17.28 59.4363 22.16C59.4363 25.28 61.3399 27.8133 64.9357 27.8133C69.6684 27.8133 72.8412 23.5467 72.8412 18.56C72.8676 15.6533 71.2019 12.9067 67.4475 12.9067ZM65.4909 24.6933C64.1161 24.6933 63.5609 23.52 63.5609 22.0533C63.5609 19.7333 64.7506 15.9733 66.9187 15.9733C68.3464 15.9733 68.7959 17.2 68.7959 18.4C68.7959 20.9067 67.6061 24.6933 65.4909 24.6933Z" fill="white"/>
<path id="p_5_" d="M83.0997 12.9067C80.4029 12.9067 78.8694 15.3067 78.8694 15.3067H78.8165L79.0545 13.1467H75.5116C75.3265 14.6133 75.0092 16.8267 74.6919 18.5067L71.9158 33.2267H75.9082L77.0186 27.2533H77.0979C77.0979 27.2533 77.9176 27.7867 79.4511 27.7867C84.1573 27.7867 87.2243 22.9333 87.2243 18.0267C87.2243 15.3333 86.0345 12.9067 83.0997 12.9067ZM79.2924 24.7733C78.2613 24.7733 77.6532 24.1867 77.6532 24.1867L78.3142 20.4267C78.7901 17.92 80.0856 16.24 81.4605 16.24C82.6767 16.24 83.0469 17.3867 83.0469 18.4533C83.0469 21.04 81.5134 24.7733 79.2924 24.7733Z" fill="white"/>
<path id="dot_5_" d="M92.9353 7.12C91.6662 7.12 90.635 8.13333 90.635 9.46666C90.635 10.6667 91.3753 11.4933 92.5122 11.4933H92.5651C93.8078 11.4933 94.8918 10.64 94.9182 9.14666C94.9447 7.94666 94.1515 7.12 92.9353 7.12Z" fill="white"/>
<path id="i_5_" d="M87.3301 27.52H91.3489L94.0722 13.2267H90.0269L87.3301 27.52Z" fill="white"/>
<path id="f_5_" d="M104.225 13.2H101.449L101.581 12.5333C101.819 11.1467 102.612 9.92002 103.961 9.92002C104.674 9.92002 105.23 10.1333 105.23 10.1333L106.023 6.98668C106.023 6.98668 105.335 6.64001 103.855 6.64001C102.427 6.64001 101.026 7.04001 99.9418 7.97335C98.5669 9.14668 97.9324 10.8267 97.6151 12.5333L97.5093 13.2H95.6586L95.0769 16.24H96.9277L94.8125 27.52H98.8049L100.92 16.24H103.67L104.225 13.2Z" fill="white"/>
<path id="y_5_" d="M113.849 13.2267C113.849 13.2267 111.337 19.5734 110.227 23.04H110.174C110.095 21.92 109.196 13.2267 109.196 13.2267H104.992L107.398 26.3467C107.451 26.64 107.424 26.8267 107.318 27.0134C106.842 27.92 106.076 28.8 105.15 29.44C104.41 30 103.564 30.3467 102.903 30.5867L104.013 34C104.833 33.8134 106.499 33.1467 107.926 31.8134C109.751 30.08 111.443 27.44 113.162 23.8134L118.053 13.2267H113.849Z" fill="white"/>
</g>
<g id="Group_3">
<path id="Vector" d="M19.7769 3.94667C19.7769 3.94667 19.4067 4.05334 18.7986 4.24C18.6928 3.89334 18.5342 3.49334 18.3227 3.06667C17.6353 1.73334 16.6041 1.01334 15.3879 1.01334C15.3086 1.01334 15.2292 1.01334 15.1235 1.04C15.097 0.986668 15.0442 0.960002 15.0177 0.906668C14.4889 0.320002 13.8015 0.0533351 12.9819 0.0800017C11.3955 0.133335 9.80912 1.28 8.54002 3.33334C7.64108 4.77334 6.95365 6.58667 6.76857 8C4.94424 8.56 3.67513 8.96 3.64869 8.98667C2.72331 9.28 2.69687 9.30667 2.59111 10.1867C2.51179 10.8533 0.0793457 29.6267 0.0793457 29.6267L20.0677 33.12V3.92C19.9091 3.92 19.8297 3.94667 19.7769 3.94667ZM15.1499 5.38667C14.0923 5.70667 12.929 6.08 11.7921 6.42667C12.1094 5.17334 12.7439 3.92 13.4842 3.09334C13.7751 2.8 14.1717 2.45334 14.6211 2.24C15.0706 3.2 15.1764 4.50667 15.1499 5.38667ZM12.9819 1.17334C13.352 1.17334 13.6693 1.25334 13.9337 1.41334C13.5107 1.62667 13.0876 1.97334 12.691 2.37334C11.6863 3.46667 10.9196 5.17334 10.6023 6.8C9.65049 7.09334 8.69866 7.38667 7.82615 7.65334C8.40783 5.09334 10.5494 1.22667 12.9819 1.17334ZM9.91488 15.84C10.0206 17.5467 14.4889 17.92 14.7533 21.9467C14.9384 25.12 13.0876 27.28 10.4172 27.44C7.1916 27.6533 5.42015 25.7333 5.42015 25.7333L6.10758 22.8C6.10758 22.8 7.87903 24.16 9.30677 24.0533C10.2322 24 10.5759 23.2267 10.5494 22.6933C10.4172 20.4533 6.76857 20.5867 6.53061 16.9067C6.3191 13.8133 8.32851 10.6933 12.7704 10.4C14.4889 10.2933 15.3614 10.72 15.3614 10.72L14.3567 14.56C14.3567 14.56 13.2198 14.0267 11.8714 14.1333C9.91488 14.2667 9.88844 15.52 9.91488 15.84ZM16.2075 5.06667C16.2075 4.26667 16.1018 3.12 15.7316 2.16C16.9478 2.4 17.5295 3.76 17.7939 4.58667C17.318 4.72 16.7892 4.88 16.2075 5.06667Z" fill="white"/>
<path id="Vector_2" d="M20.6758 33.0667L28.9778 30.9867C28.9778 30.9867 25.4085 6.63999 25.382 6.47999C25.3556 6.31999 25.2234 6.21332 25.0912 6.21332C24.959 6.21332 22.6323 6.15999 22.6323 6.15999C22.6323 6.15999 21.2046 4.77332 20.6758 4.23999V33.0667Z" fill="white"/>
</g>
</g>
</g>
</g>
</g>
</g>
<defs>
<clipPath id="clip0_10_104">
<rect width="118" height="34" fill="white"/>
</clipPath>
</defs>
</svg>
