<svg width="148" height="21" viewBox="0 0 148 21" fill="none" xmlns="http://www.w3.org/2000/svg">
<rect width="148" height="21" fill="#1E1E1E"/>
<g id="Logos">
<path d="M-874.5 -966.574C-874.5 -967.679 -873.605 -968.574 -872.5 -968.574H2376.5C2377.6 -968.574 2378.5 -967.679 2378.5 -966.574V2770.43C2378.5 2771.53 2377.6 2772.43 2376.5 2772.43H-872.5C-873.605 2772.43 -874.5 2771.53 -874.5 2770.43V-966.574Z" fill="#444444"/>
<path d="M-872.5 -968.574V-967.574H2376.5V-968.574V-969.574H-872.5V-968.574ZM2378.5 -966.574H2377.5V2770.43H2378.5H2379.5V-966.574H2378.5ZM2376.5 2772.43V2771.43H-872.5V2772.43V2773.43H2376.5V2772.43ZM-874.5 2770.43H-873.5V-966.574H-874.5H-875.5V2770.43H-874.5ZM-872.5 2772.43V2771.43C-873.052 2771.43 -873.5 2770.98 -873.5 2770.43H-874.5H-875.5C-875.5 2772.08 -874.157 2773.43 -872.5 2773.43V2772.43ZM2378.5 2770.43H2377.5C2377.5 2770.98 2377.05 2771.43 2376.5 2771.43V2772.43V2773.43C2378.16 2773.43 2379.5 2772.08 2379.5 2770.43H2378.5ZM2376.5 -968.574V-967.574C2377.05 -967.574 2377.5 -967.126 2377.5 -966.574H2378.5H2379.5C2379.5 -968.231 2378.16 -969.574 2376.5 -969.574V-968.574ZM-872.5 -968.574V-969.574C-874.157 -969.574 -875.5 -968.231 -875.5 -966.574H-874.5H-873.5C-873.5 -967.126 -873.052 -967.574 -872.5 -967.574V-968.574Z" fill="white" fill-opacity="0.1"/>
<g id="Frame 4">
<g id="Frame 5">
<g id="Sourcegraph" clip-path="url(#clip0_10_104)">
<g id="Clip path group">
<mask id="mask0_10_104" style="mask-type:luminance" maskUnits="userSpaceOnUse" x="0" y="0" width="19" height="20">
<g id="clip0_1293_14101">
<path id="Vector" d="M18.9821 0.179321H0V19.1614H18.9821V0.179321Z" fill="white"/>
</g>
</mask>
<g mask="url(#mask0_10_104)">
<g id="Group">
<g id="Clip path group_2">
<mask id="mask1_10_104" style="mask-type:luminance" maskUnits="userSpaceOnUse" x="0" y="0" width="19" height="20">
<g id="clip1_1293_14101">
<path id="Vector_2" d="M18.9821 0.179321H0V19.1614H18.9821V0.179321Z" fill="white"/>
</g>
</mask>
<g mask="url(#mask1_10_104)">
<g id="Group_2">
<path id="Vector_3" d="M7.64658 5.42084L9.94651 6.03439L8.38014 0.179321L5.72754 0.893295L6.67175 4.44356C6.79789 4.91995 7.17141 5.2947 7.64658 5.42084Z" fill="white"/>
<path id="Vector_4" d="M3.75846 17.3465L8.77587 12.3389L10.6019 19.1614L13.2544 18.4475L10.6116 8.54123L0.705401 5.90088L0 8.56817L6.81642 10.3905L1.81983 15.3907L3.75846 17.3465Z" fill="white"/>
<path id="Vector_5" d="M13.1135 9.20374L13.7295 11.5134C13.857 11.9898 14.2305 12.3634 14.7044 12.4895L18.2755 13.4386L18.9809 10.7714L13.1135 9.20374Z" fill="white"/>
<path id="Vector_6" d="M15.2224 1.99304L12.9397 4.27334C12.6873 4.52562 12.5441 4.85996 12.5343 5.21755L12.4976 6.66387L13.8349 6.71041C13.8177 6.71041 13.852 6.71041 13.8349 6.71041C14.201 6.71041 14.5452 6.56712 14.8036 6.30871L17.161 3.94881L15.2224 1.99304Z" fill="white"/>
</g>
</g>
</g>
</g>
</g>
</g>
<path id="Vector_7" d="M32.3631 9.14288C31.5527 8.80297 30.5391 8.51865 29.3222 8.2912C28.4921 8.11813 27.87 7.96485 27.4549 7.83135C27.0398 7.69784 26.7325 7.52724 26.5317 7.3208C26.331 7.11436 26.2307 6.83004 26.2307 6.47031C26.2307 6.0426 26.3471 5.71255 26.5813 5.4789C26.8155 5.24527 27.134 5.08209 27.5354 4.98815C27.9369 4.89543 28.4387 4.84846 29.0409 4.84846C29.7633 4.84846 30.4833 4.935 31.1995 5.10929C31.9158 5.28359 32.6877 5.55678 33.5179 5.93011L33.9591 3.44664C33.2094 3.08567 32.4237 2.81866 31.5997 2.6456C30.777 2.47253 29.9233 2.38477 29.0409 2.38477C27.984 2.38477 27.0199 2.54794 26.1501 2.87552C25.2802 3.20312 24.5839 3.67656 24.0622 4.29712C23.5405 4.91769 23.2791 5.67546 23.2791 6.57045C23.2791 7.35789 23.4798 8.01924 23.8812 8.55327C24.2827 9.08729 24.8713 9.51748 25.6482 9.84507C26.424 10.1727 27.4152 10.4421 28.6197 10.656C29.4759 10.8303 30.1177 10.986 30.5465 11.127C30.9752 11.2667 31.3098 11.4607 31.5502 11.708C31.7906 11.9552 31.9121 12.3125 31.9121 12.7797C31.9121 13.2075 31.7744 13.5437 31.5006 13.7909C31.2267 14.0382 30.865 14.205 30.4164 14.2916C29.9678 14.3781 29.4288 14.4214 28.8005 14.4214C27.9307 14.4214 26.9766 14.3076 25.9407 14.0815C24.9035 13.8552 24.0101 13.5474 23.2605 13.1604L22.999 15.6242C23.7214 16.0383 24.5876 16.3523 25.5987 16.5649C26.6086 16.7788 27.6891 16.8851 28.8402 16.8851C29.9914 16.8851 30.9406 16.7219 31.8513 16.3943C32.7608 16.0679 33.4869 15.5871 34.0297 14.953C34.5712 14.3188 34.8425 13.5474 34.8425 12.6401C34.8425 11.7995 34.6319 11.0912 34.2106 10.5176C33.7893 9.94397 33.1735 9.48662 32.3643 9.14541L32.3631 9.14288Z" fill="white"/>
<path id="Vector_8" d="M44.8597 6.15868C43.9366 5.67163 42.9057 5.4281 41.7681 5.4281C40.6306 5.4281 39.5662 5.67163 38.6567 6.15868C37.746 6.64573 37.0334 7.32687 36.5192 8.20084C36.0037 9.07604 35.746 10.0601 35.746 11.1553C35.746 12.2505 36 13.211 36.5093 14.0789C37.0173 14.9467 37.7298 15.6314 38.6468 16.1321C39.5637 16.6328 40.6034 16.8838 41.7681 16.8838C42.9329 16.8838 43.9366 16.6328 44.8597 16.1321C45.7829 15.6314 46.5028 14.9441 47.0182 14.069C47.5337 13.195 47.7915 12.2172 47.7915 11.1355C47.7915 10.0538 47.5337 9.05997 47.0182 8.19219C46.5028 7.3244 45.7842 6.64697 44.8597 6.15992V6.15868ZM44.6789 12.8971C44.3976 13.4051 44.0023 13.8019 43.4942 14.0887C42.985 14.3755 42.4162 14.5189 41.788 14.5189C41.1597 14.5189 40.5501 14.3755 40.042 14.0887C39.5328 13.8019 39.1313 13.4014 38.8376 12.8871C38.5427 12.3729 38.3964 11.782 38.3964 11.1145C38.3964 10.4469 38.5439 9.86594 38.8376 9.37276C39.1325 8.8795 39.534 8.49134 40.042 8.21073C40.5501 7.93012 41.1262 7.79043 41.7681 7.79043C42.4099 7.79043 42.9862 7.93012 43.4942 8.21073C44.0023 8.49134 44.3976 8.88568 44.6789 9.39252C44.9601 9.9006 45.1001 10.4877 45.1001 11.1553C45.1001 11.8228 44.9601 12.3902 44.6789 12.8971Z" fill="white"/>
<path id="Vector_9" d="M57.1648 12.1838C57.114 12.3173 57.0582 12.4484 56.9938 12.5769C56.7063 13.1505 56.3073 13.6055 55.7993 13.9392C55.29 14.273 54.7225 14.4399 54.093 14.4399C53.2628 14.4399 52.6445 14.2161 52.2368 13.7686C51.8279 13.3211 51.6247 12.6845 51.6247 11.8563V5.64819H48.9556V12.2568C48.9556 13.1913 49.1427 14.006 49.5181 14.6995C49.8924 15.3942 50.4141 15.9282 51.0844 16.3015C51.7536 16.6748 52.523 16.8627 53.3929 16.8627C54.7039 16.8627 55.7423 16.529 56.5044 15.8615C56.7546 15.6426 56.9727 15.4028 57.1673 15.1432V16.6427H59.8364V5.64819H57.1673V12.1838H57.1648Z" fill="white"/>
<path id="Vector_10" d="M67.221 5.44788C65.9633 5.44788 65.0191 5.86199 64.3909 6.68899C64.2422 6.88554 64.1083 7.10435 63.9894 7.3454V5.64813H61.3191V16.6427H63.9894V12.117C63.9894 10.8895 64.2534 9.90424 64.7825 9.16379C65.3103 8.42334 66.0303 8.05249 66.9397 8.05249H67.6027C67.7365 8.06609 67.8567 8.07227 67.9645 8.07227H68.2855L68.5865 5.58879C68.1182 5.49608 67.6634 5.44911 67.221 5.44911V5.44788Z" fill="white"/>
<path id="Vector_11" d="M72.9328 8.18106C73.4482 7.90787 74.0331 7.77065 74.6899 7.77065C75.2251 7.77065 75.727 7.851 76.1953 8.01047C76.6638 8.17117 77.1384 8.43077 77.6204 8.79173L78.7244 6.80891C78.0689 6.32804 77.3998 5.9782 76.717 5.75816C76.0343 5.53813 75.2846 5.4281 74.4693 5.4281C73.3851 5.4281 72.395 5.66545 71.4979 6.13891C70.6008 6.61235 69.892 7.2873 69.3703 8.16128C68.8486 9.03651 68.5872 10.0341 68.5872 11.1553C68.5872 12.2765 68.8412 13.268 69.3504 14.1295C69.8585 14.9912 70.5649 15.6587 71.4681 16.1321C72.3714 16.6055 73.3652 16.843 74.4495 16.843C75.2785 16.843 76.0182 16.7391 76.6675 16.5326C77.3168 16.3262 78.002 15.9813 78.7244 15.5017L77.66 13.5596C77.178 13.8798 76.6935 14.1234 76.2041 14.2902C75.7159 14.4571 75.2165 14.5412 74.7084 14.5412C74.053 14.5412 73.4644 14.4076 72.9414 14.1406C72.4198 13.8737 72.0084 13.483 71.7072 12.9688C71.4062 12.4545 71.255 11.8512 71.255 11.1565C71.255 10.4618 71.4049 9.84492 71.7072 9.34433C72.0084 8.84365 72.416 8.45673 72.9316 8.1823L72.9328 8.18106Z" fill="white"/>
<path id="Vector_12" d="M87.3554 6.07832C86.5388 5.65802 85.6417 5.44788 84.6653 5.44788C83.5005 5.44788 82.4733 5.6914 81.5836 6.17845C80.6939 6.6655 80.0074 7.34293 79.5254 8.21072C79.0434 9.07851 78.803 10.06 78.803 11.154C78.803 12.2481 79.057 13.1937 79.5663 14.0677C80.0743 14.9429 80.7905 15.6265 81.7137 16.121C82.6368 16.6155 83.674 16.8615 84.8251 16.8615C85.628 16.8615 86.3443 16.7774 86.9725 16.6105C87.602 16.4437 88.203 16.1667 88.7792 15.7798L88.0964 13.5967C87.6676 13.9046 87.1733 14.1406 86.6107 14.3075C86.0481 14.4744 85.4992 14.5585 84.9651 14.5585C84.2427 14.5585 83.6206 14.4287 83.0978 14.1678C82.5761 13.907 82.1747 13.5238 81.8934 13.0158C81.7397 12.7388 81.6294 12.4236 81.56 12.075H89.6415C89.7345 11.808 89.8126 11.5237 89.872 11.2232C89.9328 10.9229 89.9625 10.6064 89.9625 10.2726C89.9625 9.3653 89.7321 8.54325 89.2698 7.80896C88.8077 7.07468 88.1695 6.49739 87.353 6.07708L87.3554 6.07832ZM81.845 9.33317C82.0928 8.82634 82.4534 8.43571 82.9293 8.16128C83.4039 7.88808 83.9702 7.75086 84.6256 7.75086C85.2142 7.75086 85.7222 7.8683 86.151 8.10069C86.5797 8.33434 86.8933 8.69159 87.094 9.17245C87.2116 9.45311 87.2799 9.77447 87.3009 10.1342H81.5736C81.6356 9.84621 81.7248 9.57792 81.845 9.33317Z" fill="white"/>
<path id="Vector_13" d="M100.102 7.15009C99.6617 6.57651 99.1049 6.14632 98.4362 5.85829C97.7666 5.5715 96.9778 5.4281 96.0664 5.4281C95.0764 5.4281 94.1893 5.66174 93.4078 6.12902C92.6245 6.59629 92.0081 7.24404 91.5614 8.07105C91.1129 8.89928 90.8882 9.82642 90.8882 10.8549C90.8882 11.8834 91.1129 12.7549 91.5614 13.5485C92.0099 14.3434 92.6317 14.9701 93.4286 15.4312C94.2245 15.8923 95.1179 16.1223 96.1088 16.1223C96.9923 16.1223 97.7657 15.9826 98.4272 15.7019C99.0905 15.4214 99.6355 14.9949 100.063 14.42V14.9404C100.063 15.9282 99.7447 16.7094 99.1085 17.283C98.4732 17.8566 97.5933 18.1446 96.4698 18.1446C95.7334 18.1446 95.0168 18.0346 94.322 17.8145C93.6253 17.5945 93.0035 17.2904 92.4548 16.9035L91.4116 18.7862C92.1336 19.2795 92.9467 19.6577 93.85 19.9173C94.7533 20.1781 95.7271 20.3079 96.7703 20.3079C98.6437 20.3079 100.11 19.8073 101.167 18.806C102.224 17.8047 102.753 16.4102 102.753 14.6203V5.64814H100.104V7.15009H100.102ZM99.65 12.5472C99.363 13.0343 98.9713 13.4088 98.4759 13.6685C97.9796 13.9293 97.4047 14.059 96.7495 14.059C96.1476 14.059 95.6016 13.9219 95.1134 13.6487C94.6252 13.3754 94.2398 12.991 93.9601 12.4966C93.6785 12.0033 93.5387 11.4557 93.5387 10.8549C93.5387 10.2541 93.6785 9.66326 93.9601 9.16258C94.2416 8.66193 94.6252 8.27131 95.1134 7.99069C95.6016 7.71008 96.1476 7.57039 96.7495 7.57039C97.4047 7.57039 97.9814 7.70019 98.4759 7.96102C98.9695 8.22185 99.3612 8.59889 99.65 9.0921C99.9378 9.58655 100.081 10.1601 100.081 10.8141C100.081 11.468 99.9378 12.059 99.65 12.546V12.5472Z" fill="white"/>
<path id="Vector_14" d="M107.349 6.6891C107.2 6.88565 107.066 7.10445 106.947 7.3455V5.64824H104.277V16.6428H106.947V12.1171C106.947 10.8896 107.211 9.90435 107.74 9.1639C108.268 8.42345 108.988 8.0526 109.898 8.0526H110.56C110.694 8.0662 110.815 8.07238 110.922 8.07238H111.243L111.544 5.58891C111.076 5.49619 110.621 5.44922 110.179 5.44922C108.921 5.44922 107.977 5.86333 107.349 6.69033V6.6891Z" fill="white"/>
<path id="Vector_15" d="M120.647 6.63955C119.784 5.83233 118.476 5.4281 116.724 5.4281C115.385 5.4281 114.039 5.64814 112.689 6.08945L113.009 8.432C113.504 8.21814 114.047 8.05497 114.635 7.94125C115.224 7.82751 115.826 7.77065 116.442 7.77065C117.379 7.77065 118.085 7.95113 118.559 8.31086C119.034 8.67182 119.272 9.20581 119.272 9.91296V9.99698C118.836 9.95871 118.362 9.9228 117.847 9.89193C117.178 9.85241 116.522 9.83138 115.879 9.83138C114.434 9.83138 113.363 10.159 112.667 10.8129C111.971 11.4668 111.624 12.3087 111.624 13.3359C111.624 14.0171 111.778 14.624 112.086 15.158C112.394 15.6921 112.839 16.1099 113.421 16.409C114.004 16.7094 114.675 16.8602 115.439 16.8602C116.201 16.8602 116.857 16.7502 117.446 16.5302C118.034 16.3102 118.51 16.0234 118.87 15.6685C119.024 15.5177 119.157 15.3645 119.272 15.2087V16.6402H121.942V10.0922C121.942 8.59766 121.511 7.44554 120.647 6.63708V6.63955ZM117.988 14.2087C117.548 14.4558 116.991 14.5795 116.322 14.5795C115.652 14.5795 115.087 14.4633 114.706 14.2284C114.324 13.9948 114.134 13.6511 114.134 13.1975C114.134 12.7166 114.327 12.3495 114.716 12.0961C115.104 11.8426 115.759 11.7153 116.684 11.7153C117.192 11.7153 117.654 11.7251 118.069 11.7449C118.476 11.7648 118.877 11.8006 119.272 11.8525C119.262 12.3556 119.16 12.8068 118.963 13.2061C118.755 13.6264 118.431 13.9601 117.988 14.2074V14.2087Z" fill="white"/>
<path id="Vector_16" d="M132.571 6.16857C131.749 5.67533 130.847 5.4281 129.871 5.4281C129.108 5.4281 128.399 5.5579 127.744 5.81873C127.088 6.07956 126.519 6.4566 126.037 6.94983V5.64814H123.367V20.0866H126.037V15.3806C126.345 15.7143 126.702 15.9887 127.111 16.2013C127.519 16.4152 127.948 16.5821 128.396 16.702C128.845 16.8219 129.329 16.8825 129.853 16.8825C130.856 16.8825 131.766 16.6452 132.583 16.1716C133.399 15.6982 134.045 15.027 134.519 14.1592C134.994 13.2914 135.231 12.2963 135.231 11.1751C135.231 10.0538 134.994 9.0958 134.519 8.22062C134.045 7.34664 133.395 6.66181 132.573 6.16733L132.571 6.16857ZM132.169 12.8871C131.896 13.3878 131.514 13.7785 131.026 14.059C130.538 14.3397 129.986 14.4794 129.369 14.4794C128.714 14.4794 128.132 14.3458 127.624 14.0789C127.114 13.8119 126.724 13.4249 126.449 12.9168C126.175 12.41 126.037 11.8228 126.037 11.1541C126.037 10.4853 126.177 9.88571 126.459 9.39126C126.74 8.89804 127.131 8.50988 127.634 8.22927C128.136 7.94866 128.714 7.80898 129.369 7.80898C129.986 7.80898 130.537 7.94866 131.026 8.22927C131.514 8.50988 131.896 8.9067 132.169 9.42095C132.444 9.93516 132.581 10.5187 132.581 11.1726C132.581 11.8265 132.444 12.384 132.169 12.8847V12.8871Z" fill="white"/>
<path id="Vector_17" d="M146.894 7.59023C146.52 6.89673 145.997 6.36272 145.328 5.98815C144.659 5.61483 143.889 5.42692 143.019 5.42692C141.707 5.42692 140.671 5.7607 139.908 6.42823C139.658 6.64703 139.439 6.88685 139.245 7.14645V1.86304H136.575V16.6427H139.245V10.1059C139.296 9.97231 139.352 9.84127 139.416 9.71277C139.704 9.13918 140.102 8.68425 140.611 8.35048C141.119 8.01671 141.687 7.84983 142.317 7.84983C143.147 7.84983 143.766 8.07358 144.173 8.52107C144.58 8.96856 144.785 9.60646 144.785 10.4335V16.6415H147.456V10.033C147.456 9.09839 147.268 8.28373 146.893 7.59023H146.894Z" fill="white"/>
</g>
</g>
</g>
</g>
<defs>
<clipPath id="clip0_10_104">
<rect width="148" height="20.7561" fill="white"/>
</clipPath>
</defs>
</svg>
