<svg width="110" height="19" viewBox="0 0 110 19" fill="none" xmlns="http://www.w3.org/2000/svg">
<rect width="110" height="19" fill="#1E1E1E"/>
<g id="Logos">
<path d="M-303.935 -1201.21C-303.935 -1202.31 -303.039 -1203.21 -301.935 -1203.21H2947.07C2948.17 -1203.21 2949.07 -1202.31 2949.07 -1201.21V2535.79C2949.07 2536.89 2948.17 2537.79 2947.07 2537.79H-301.935C-303.039 2537.79 -303.935 2536.89 -303.935 2535.79V-1201.21Z" fill="#444444"/>
<path d="M-301.935 -1203.21V-1202.21H2947.07V-1203.21V-1204.21H-301.935V-1203.21ZM2949.07 -1201.21H2948.07V2535.79H2949.07H2950.07V-1201.21H2949.07ZM2947.07 2537.79V2536.79H-301.935V2537.79V2538.79H2947.07V2537.79ZM-303.935 2535.79H-302.935V-1201.21H-303.935H-304.935V2535.79H-303.935ZM-301.935 2537.79V2536.79C-302.487 2536.79 -302.935 2536.34 -302.935 2535.79H-303.935H-304.935C-304.935 2537.45 -303.592 2538.79 -301.935 2538.79V2537.79ZM2949.07 2535.79H2948.07C2948.07 2536.34 2947.62 2536.79 2947.07 2536.79V2537.79V2538.79C2948.72 2538.79 2950.07 2537.45 2950.07 2535.79H2949.07ZM2947.07 -1203.21V-1202.21C2947.62 -1202.21 2948.07 -1201.76 2948.07 -1201.21H2949.07H2950.07C2950.07 -1202.87 2948.72 -1204.21 2947.07 -1204.21V-1203.21ZM-301.935 -1203.21V-1204.21C-303.592 -1204.21 -304.935 -1202.87 -304.935 -1201.21H-303.935H-302.935C-302.935 -1201.76 -302.487 -1202.21 -301.935 -1202.21V-1203.21Z" fill="white" fill-opacity="0.1"/>
<g id="Frame 4">
<g id="Frame 6">
<g id="Statsig" clip-path="url(#clip0_10_104)">
<g id="Clip path group">
<mask id="mask0_10_104" style="mask-type:luminance" maskUnits="userSpaceOnUse" x="0" y="0" width="110" height="19">
<g id="clip0_9553_1168">
<path id="Vector" d="M109.828 0H0V18.6441H109.828V0Z" fill="white"/>
</g>
</mask>
<g mask="url(#mask0_10_104)">
<g id="StatsigLogo_QuarterBold">
<path id="Vector_2" d="M93.0223 16.4306H89.6515V2.18774H93.0223V16.4306Z" fill="white"/>
<path id="Vector_2_2" d="M60.5755 14.2021L53.7319 14.191L52.8009 16.4332H49.1479L55.5329 2.17052L58.7546 2.16431L65.1632 16.427L61.4841 16.4332L60.5755 14.2021ZM57.4532 6.7147C57.3675 6.50838 57.1425 5.87821 57.1425 5.87821C57.1425 5.87821 56.9225 6.49719 56.8417 6.69978C56.7075 7.03414 54.9052 11.3857 54.9052 11.3857H59.3835C59.3835 11.3857 57.6583 7.20939 57.4532 6.7147Z" fill="white"/>
<path id="Vector_3" d="M50.3468 5.07757H46.7001V16.4294H43.3504V5.07757H39.6948V2.18774H50.3456V5.07757H50.3468Z" fill="white"/>
<path id="Vector_4" d="M74.6205 5.07757H70.9737V16.4294H67.624V5.07757H63.9685V2.18774H74.6192V5.07757H74.6205Z" fill="white"/>
<path id="Vector_5" d="M17.9995 4.18877L12.0893 13.0249L9.24671 8.78763L2.66162 18.6044L2.69021 18.6479H14.5391C14.9468 18.6479 15.3284 18.4452 15.5546 18.1072L20.9937 9.99454C21.2659 9.5881 21.2659 9.05984 20.9937 8.6534L17.9983 4.18628H17.9995V4.18877Z" fill="white"/>
<path id="Vector_6" d="M9.25113 5.29243L12.0912 9.52712L18.4638 0H6.66209C6.2544 0 5.87282 0.202599 5.6466 0.539435L0.207509 8.65085C-0.0646939 9.05729 -0.0646939 9.58557 0.207509 9.99201L3.15203 14.3832L9.25113 5.29243Z" fill="white"/>
<path id="Vector_7" d="M102.689 11.0408H106.128V12.9338C105.616 13.2806 104.762 13.7877 103.082 13.7877C99.9871 13.7877 98.3362 12.0165 98.3362 9.31063C98.3362 6.60476 100.054 4.82114 103.128 4.82114C104.541 4.82114 105.543 5.16419 106.863 6.19086L108.474 3.7895C107.029 2.48193 105.056 1.92261 103.151 1.92261C98.559 1.92261 95.0371 4.97651 95.0371 9.33055C95.0371 13.6845 98.4881 16.6962 102.957 16.6962C106.237 16.6962 108.39 15.2929 109.231 14.6404V8.16961H102.691V11.0408H102.689Z" fill="white"/>
<path id="Vector_8" d="M31.0012 6.12661C31.0012 5.38581 31.9907 4.88243 33.3728 4.88243C34.658 4.88243 35.5405 5.11734 36.4777 5.59339L38.1345 3.12366L38.1494 3.10005L38.1531 3.09508C36.8219 2.363 35.4311 1.90808 33.4636 1.90808C30.0194 1.90808 27.4701 3.63451 27.5099 6.36027C27.5099 11.5819 35.5616 9.92002 35.5616 12.4196C35.5616 13.3617 34.4044 13.7396 33.0185 13.7396C31.4251 13.7396 29.9137 13.1293 28.6111 12.4171L26.9207 14.9378C28.1922 15.8128 30.4233 16.74 32.9826 16.74C36.5846 16.74 38.9971 15.21 38.9971 12.1586C38.9971 6.72446 31.0012 8.73678 31.0012 6.12661Z" fill="white"/>
<path id="Vector_9" d="M79.6361 6.12661C79.6361 5.38581 80.6254 4.88243 82.0076 4.88243C83.2928 4.88243 84.1753 5.11734 85.1125 5.59339L86.7693 3.12366L86.7842 3.10005L86.7879 3.09508C85.4568 2.363 84.0659 1.90808 82.0983 1.90808C78.6542 1.90808 76.1049 3.63451 76.1447 6.36027C76.1447 11.5819 84.1964 9.92002 84.1964 12.4196C84.1964 13.3617 83.0393 13.7396 81.6534 13.7396C80.06 13.7396 78.5485 13.1293 77.2459 12.4171L75.5555 14.9378C76.8271 15.8128 79.0581 16.74 81.6173 16.74C85.2193 16.74 87.6319 15.21 87.6319 12.1586C87.6319 6.72446 79.6361 8.73678 79.6361 6.12661Z" fill="white"/>
</g>
</g>
</g>
</g>
</g>
</g>
</g>
<defs>
<clipPath id="clip0_10_104">
<rect width="110" height="18.6441" fill="white"/>
</clipPath>
</defs>
</svg>
